<svg width="99" height="47" viewBox="0 0 99 47" fill="none" xmlns="http://www.w3.org/2000/svg">
<g clip-path="url(#clip0)">
<path d="M30.2 46.3C24.7 46.3 19.3 45.5 12.3 43.9C11.7 43.8 11.1 43.7 10.5 43.8L4.29995 44.8C3.49995 44.9 2.79995 44.7 2.19995 44.1C1.69995 43.5 1.39995 42.8 1.59995 42L2.49995 37.1C2.59995 36.5 2.59995 35.8 2.29995 35.2C-1.00005 27.1 -1.00005 18.9 2.29995 10.9C2.49995 10.3 2.59995 9.59998 2.49995 8.99998L1.69995 4.19998C1.59995 3.49998 1.79995 2.69998 2.39995 2.09998C2.99995 1.49998 3.69995 1.29998 4.49995 1.39998L11.6 2.59998C26.1 -0.900024 34.5999 -0.900024 49.0999 2.59998L56.2 1.39998C57 1.29998 57.7 1.49998 58.2999 2.09998C58.8999 2.69998 59.1 3.39998 58.9 4.19998L57.9 8.99998V37.3L58.7999 42.1C58.8999 42.9 58.7 43.6 58.2 44.2C57.7 44.8 56.8999 45 56.0999 44.9L49.9 43.9C49.3 43.8 48.6999 43.8 48.0999 44C41.1999 45.5 35.7 46.3 30.2 46.3ZM11.3 41.8C11.8 41.8 12.3 41.9 12.8 42C26.5 45.1 33.9999 45.1 47.5999 42C48.5 41.8 49.2999 41.8 50.2 41.9L56.4 42.9C56.6 42.9 56.7 42.8 56.7 42.8C56.7 42.7 56.7999 42.6 56.7999 42.5L55.9 37.6C55.9 37.5 55.9 37.5 55.9 37.4V8.89997C55.9 8.79997 55.9 8.79998 55.9 8.69998L56.7999 3.79998C56.7999 3.59998 56.7999 3.49998 56.7 3.49998C56.6 3.39998 56.5 3.39998 56.4 3.39998L49.2 4.59998C49.1 4.59998 48.9 4.59998 48.7 4.59998C34.4 1.09998 26.1 1.09998 11.7 4.59998C11.5 4.59998 11.4 4.59998 11.2 4.59998L4.09995 3.39998C3.89995 3.39998 3.79995 3.49998 3.79995 3.49998C3.79995 3.59998 3.69995 3.69998 3.69995 3.79998L4.59995 8.69998C4.79995 9.69998 4.69995 10.8 4.29995 11.7C1.19995 19.3 1.19995 27 4.29995 34.5C4.69995 35.5 4.79995 36.5 4.59995 37.5L3.69995 42.4C3.69995 42.6 3.69995 42.7 3.79995 42.7C3.79995 42.8 3.99995 42.8 4.09995 42.8L10.3 41.8C10.6 41.8 11 41.8 11.3 41.8Z" fill="#537CC2"/>
<path d="M64.8 38.8H61.2C60.6 38.8 60.2 38.3 60.2 37.8C60.2 37.3 60.7 36.8 61.2 36.8H64.8C65.8 36.8 66.5 36 66.5 35.1V11C66.5 9.99999 65.7 9.29999 64.8 9.29999H61.2C60.6 9.29999 60.2 8.79999 60.2 8.29999C60.2 7.79999 60.7 7.29999 61.2 7.29999H64.8C66.9 7.29999 68.5 8.99999 68.5 11V35C68.5 37.1 66.9 38.8 64.8 38.8Z" fill="#537CC2"/>
<path d="M69.1999 44H61.7999C61.1999 44 60.7999 43.6 60.7999 43C60.7999 42.4 61.1999 42 61.7999 42H69.1999C71.2999 42 72.9999 40.3 72.9999 38.2V7.8C72.9999 5.7 71.2999 4 69.1999 4H61.7999C61.1999 4 60.7999 3.6 60.7999 3C60.7999 2.4 61.1999 2 61.7999 2H69.1999C72.3999 2 74.9999 4.6 74.9999 7.8V38.2C74.9999 41.4 72.3999 44 69.1999 44Z" fill="#537CC2"/>
<path d="M89.2999 24.1H78.8999C78.2999 24.1 77.8999 23.7 77.8999 23.1C77.8999 22.5 78.2999 22.1 78.8999 22.1H89.2999C89.8999 22.1 90.2999 22.5 90.2999 23.1C90.2999 23.7 89.8999 24.1 89.2999 24.1Z" fill="#537CC2"/>
<path d="M93.7 24.1C93.4 24.1 93.2 24 93 23.8C92.8 23.6 92.7 23.4 92.7 23.1C92.7 22.8 92.8 22.6 93 22.4C93.4 22 94 22 94.4 22.4C94.6 22.6 94.7 22.8 94.7 23.1C94.7 23.4 94.6 23.6 94.4 23.8C94.2 24 94 24.1 93.7 24.1Z" fill="#537CC2"/>
<path d="M83.3999 28.7C83.0999 28.7 82.8999 28.6 82.6999 28.4L78.1999 23.9C77.9999 23.7 77.8999 23.5 77.8999 23.2C77.8999 22.9 77.9999 22.7 78.1999 22.5L82.6999 18C83.0999 17.6 83.6999 17.6 84.0999 18C84.4999 18.4 84.4999 19 84.0999 19.4L80.2999 23.2L84.0999 27C84.4999 27.4 84.4999 28 84.0999 28.4C83.8999 28.6 83.5999 28.7 83.3999 28.7Z" fill="#537CC2"/>
<path d="M97.7999 24.0999C97.4999 24.0999 97.2999 23.9999 97.0999 23.7999C96.8999 23.5999 96.7999 23.3999 96.7999 23.0999C96.7999 22.7999 96.8999 22.5999 97.0999 22.3999C97.3999 22.0999 97.7999 21.9999 98.1999 22.1999C98.2999 22.1999 98.3999 22.2999 98.4999 22.3999C98.6999 22.5999 98.7999 22.7999 98.7999 23.0999C98.7999 23.3999 98.6999 23.5999 98.4999 23.7999C98.2999 23.9999 97.9999 24.0999 97.7999 24.0999Z" fill="#537CC2"/>
</g>
<defs>
<clipPath id="clip0">
<rect width="98.8" height="46.3" fill="white"/>
</clipPath>
</defs>
</svg>
