<?xml version="1.0" encoding="utf-8"?>
<!-- Generator: Adobe Illustrator 16.0.4, SVG Export Plug-In . SVG Version: 6.00 Build 0)  -->
<!DOCTYPE svg PUBLIC "-//W3C//DTD SVG 1.1//EN" "http://www.w3.org/Graphics/SVG/1.1/DTD/svg11.dtd">
<svg version="1.1" id="Layer_1" xmlns="http://www.w3.org/2000/svg" xmlns:xlink="http://www.w3.org/1999/xlink" x="0px" y="0px"
   width="389.013px" height="233.727px" viewBox="0 0 389.013 233.727" enable-background="new 0 0 389.013 233.727"
   xml:space="preserve">
<g>
  <path fill="#ADB4B8" d="M136.46,102.38c0.574,0.884,1.536,1.366,2.519,1.366c0.543,0,1.092-0.147,1.586-0.456l45.724-28.556
    c0.683-0.426,1.165-1.109,1.339-1.895c0.174-0.786,0.025-1.609-0.413-2.284c-4.449-6.849-9.971-12.823-15.968-17.276
    c-0.991-0.735-2.331-0.79-3.378-0.136l-45.724,28.557c-0.841,0.525-1.368,1.433-1.408,2.424c-0.04,0.991,0.413,1.938,1.209,2.529
    C127.378,90.687,132.396,96.125,136.46,102.38z M169.276,59.34c4.081,3.288,7.89,7.362,11.186,11.961l-11.843,7.396
    c-3.254-4.574-7-8.662-11.02-12.064L169.276,59.34z M155.824,67.742c4.048,3.348,7.82,7.434,11.094,12.018l-13.54,8.456
    c-3.254-4.574-7-8.662-11.02-12.063L155.824,67.742z M140.583,77.261c4.048,3.347,7.82,7.433,11.093,12.017l-11.84,7.395
    c-3.233-4.561-6.941-8.671-10.929-12.12L140.583,77.261z"/>
  <path fill="#ADB4B8" d="M388.322,114.89c-1.402-2.379-4.467-3.172-6.846-1.771l-0.271,0.159c-0.108,0.057-0.222,0.095-0.327,0.161
    c-8.044,5.018-22.432,2.062-35.472-6.932l22.555-13.485c0.049-0.029,0.087-0.069,0.135-0.1c0.084-0.054,0.172-0.096,0.254-0.156
    c12.959-9.486,11.602-35.191-2.903-55.011c-14.419-19.7-38.104-28.916-50.99-19.963l-47.356,28.409
    c-1.782-4.276-3.94-7.692-7.383-12.99c-8.66-13.331-19.979-23.653-31.87-29.068c-12.482-5.683-24.468-5.533-33.789,0.4
    c-0.361,0.113-0.716,0.257-1.056,0.458L14.421,110.532c-0.054,0.032-0.095,0.075-0.147,0.108c-0.065,0.039-0.135,0.061-0.199,0.103
    c-18.812,12.222-18.903,44.339-0.207,73.119c8.681,13.362,20.16,23.855,32.323,29.546c6.468,3.025,12.769,4.539,18.62,4.539
    c5.862,0,11.273-1.52,15.95-4.558c0.199-0.129,0.369-0.285,0.543-0.437c0.305-0.105,0.607-0.232,0.896-0.402l45.349-26.636
    c1.832,4.57,4.09,9.041,6.759,13.319c8.339,13.366,20.365,23.99,33.861,29.915c6.978,3.063,13.763,4.6,19.9,4.6
    c5.579,0,10.619-1.276,14.777-3.822c0.021-0.012,0.041-0.019,0.061-0.03l183.643-108.159
    C388.931,120.334,389.724,117.27,388.322,114.89z M265.215,58.995c0.237-0.033,0.476-0.083,0.712-0.152
    c1.094-0.318,1.979-0.988,2.607-1.839l51.093-30.651c0.067-0.041,0.12-0.095,0.185-0.138c0.063-0.042,0.134-0.069,0.196-0.115
    c7.229-5.292,25.513,1.361,37.369,17.562c12.739,17.406,11.552,36.058,5.185,40.938l-27.922,16.694
    c-0.506,0.303-0.923,0.692-1.278,1.123l-138.41,83.646c0.666-2.91,0.863-6.16,0.565-9.68c-0.765-9.036-4.8-18.951-11.364-27.919
    c-9.05-12.365-20.416-20.427-30.425-22.59L265.215,58.995z M184.767,192.22l-1.134,0.686c-3.272,1.58-7.699,1.385-12.355-0.617
    c-5.501-2.365-10.686-6.976-14.225-12.649c-3.63-5.817-5.535-12.18-5.364-17.914c0.157-5.284,2.075-9.338,5.401-11.413
    c0.116-0.072,0.214-0.16,0.317-0.245l12.646-8.321c3.256,2.919,6.407,6.368,9.259,10.264c5.922,8.092,9.554,16.929,10.227,24.882
    C190.116,183.714,188.377,189.251,184.767,192.22z M74.809,204.228c-3.113,2.022-6.782,3.048-10.907,3.048
    c-8.113,0-17.25-3.986-25.674-10.756c-5.898-4.852-11.358-11.003-15.973-18.106c-7.019-10.805-11.044-22.441-11.983-32.699
    c-0.833-11.419,2.381-21.021,9.756-25.812c3.113-2.022,6.783-3.048,10.907-3.048c13.823,0,30.62,11.561,41.797,28.767
    c7.452,11.47,11.674,24.01,11.889,35.31C84.826,191.71,81.341,199.984,74.809,204.228z M124.352,176.194l-36.756,21.589
    c2.104-4.803,3.147-10.534,3.024-16.966c-0.236-12.406-4.802-26.066-12.857-38.465c-11.807-18.175-28.983-30.233-44.402-31.396
    l164.724-97.342c0.409-0.132,0.812-0.3,1.189-0.545c6.389-4.15,15.063-4.088,24.431,0.176
    c10.181,4.635,19.992,13.661,27.627,25.415c3.657,5.63,5.522,8.619,7.075,12.758l-121.505,72.891
    c-0.577,0.347-1.055,0.793-1.434,1.301c-8.197,5.642-13.106,16.707-13.496,30.602C121.788,162.766,122.614,169.517,124.352,176.194
    z M197.834,221.278c-0.02,0.012-0.033,0.027-0.053,0.038c-0.018,0.012-0.038,0.017-0.057,0.028
    c-5.807,3.622-15.354,3.117-25.535-1.353c-11.503-5.05-22.218-14.545-29.396-26.052c-12.441-19.942-15.737-51.348-1.17-60.436
    c0.22-0.138,0.411-0.302,0.602-0.466c5.398-3.617,14.192-1.45,22.911,4.76l-11.342,7.464c-0.107,0.07-0.198,0.156-0.293,0.238
    c-4.825,3.225-7.597,8.896-7.81,16.046c-0.205,6.905,2.022,14.458,6.271,21.269c4.233,6.785,10.251,12.107,16.946,14.985
    c3.357,1.443,6.698,2.164,9.822,2.164c3.305,0,6.368-0.807,8.949-2.417c0.027-0.018,0.048-0.04,0.075-0.058
    c0.036-0.024,0.074-0.042,0.109-0.067c0.114-0.083,0.218-0.176,0.33-0.262l145.467-87.911c0.307,0.785,0.795,1.511,1.498,2.077
    c8.521,6.865,17.872,11.406,26.678,13.361L197.834,221.278z"/>
</g>
</svg>
