<svg width="64" height="63" viewBox="0 0 64 63" fill="none" xmlns="http://www.w3.org/2000/svg">
<g clip-path="url(#clip0)">
<path d="M22.2001 56.7C21.6001 56.7 21.2001 56.3 21.2001 55.7C21.2001 55 20.9 54.7 20.1 54C19.2 53.2 17.8 51.9 17.8 49.5C17.8 48.9 18.2 48.5 18.8 48.5C19.4 48.5 19.8 48.9 19.8 49.5C19.8 51 20.6 51.8 21.5 52.6C22.3 53.4 23.2001 54.2 23.2001 55.8C23.2001 56.3 22.7001 56.7 22.2001 56.7Z" fill="#537CC2"/>
<path d="M21.3 60.1C21 60.1 20.8 60 20.6 59.8C20.5 59.7 20.4 59.6 20.4 59.5C20.4 59.4 20.3 59.3 20.3 59.1C20.3 58.8 20.4 58.6 20.6 58.4C20.7 58.3 20.8 58.2 20.9 58.2C21.1 58.1 21.4001 58.1 21.7001 58.2C21.8001 58.2 21.9 58.3 22 58.4C22.2 58.6 22.3 58.8 22.3 59.1C22.3 59.4 22.2 59.6 22 59.8C21.8 60 21.6 60.1 21.3 60.1Z" fill="#537CC2"/>
<path d="M19.3 63C19.2 63 19 63 18.9 62.9C18.8 62.8 18.7 62.8 18.6 62.7C18.4 62.5 18.3 62.3 18.3 62C18.3 61.7 18.4 61.5 18.6 61.3C18.8 61.1 19.2 61 19.5 61C19.6 61 19.6001 61 19.7001 61.1C19.8001 61.1 19.8 61.2 19.9 61.2C20 61.2 20 61.3 20.1 61.3C20.3001 61.5 20.4 61.7 20.4 62C20.4 62.1 20.4 62.3 20.3 62.4C20.3 62.5 20.2 62.6 20.1 62.7C20 62.8 19.9 62.9 19.8 62.9C19.6 63 19.5 63 19.3 63Z" fill="#537CC2"/>
<path d="M10.7 56.7C10.1 56.7 9.70005 56.3 9.70005 55.7C9.70005 55 9.40005 54.8 8.60005 54C7.70005 53.2 6.30005 51.9 6.30005 49.5C6.30005 48.9 6.70005 48.5 7.30005 48.5C7.90005 48.5 8.30005 48.9 8.30005 49.5C8.30005 51 9.10005 51.8 10 52.6C10.8 53.4 11.7 54.2 11.7 55.8C11.7 56.3 11.3 56.7 10.7 56.7Z" fill="#537CC2"/>
<path d="M9.80005 60.1C9.50005 60.1 9.30005 60 9.10005 59.8C9.00005 59.7 9.00005 59.6 8.90005 59.5C8.90005 59.4 8.80005 59.3 8.80005 59.1C8.80005 58.8 8.90005 58.6 9.10005 58.4C9.40005 58.1 9.80005 58 10.2 58.2C10.3 58.2 10.4 58.3 10.5 58.4C10.7 58.6 10.8 58.8 10.8 59.1C10.8 59.4 10.7 59.6 10.5 59.8C10.4 60 10.1 60.1 9.80005 60.1Z" fill="#537CC2"/>
<path d="M7.90002 63C7.80002 63 7.60002 63 7.50002 62.9C7.40002 62.8 7.30002 62.8 7.20002 62.7C7.00002 62.5 6.90002 62.3 6.90002 62C6.90002 61.7 7.00002 61.5 7.20002 61.3C7.60002 60.9 8.20002 60.9 8.60002 61.3C8.80002 61.5 8.90002 61.7 8.90002 62C8.90002 62.3 8.80002 62.5 8.60002 62.7C8.40002 62.9 8.20002 63 7.90002 63Z" fill="#537CC2"/>
<path d="M25.1 4.9C24.8 4.9 24.6 4.8 24.4 4.6L22.2 2.4L20 4.6C19.6 5 19 5 18.6 4.6C18.2 4.2 18.2 3.6 18.6 3.2L21.5 0.3C21.9 -0.1 22.5 -0.1 22.9 0.3L25.8 3.2C26.2 3.6 26.2 4.2 25.8 4.6C25.7 4.8 25.4 4.9 25.1 4.9Z" fill="#537CC2"/>
<path d="M18.9 13.4C18.4 13.4 18 13 17.9 12.5C17.7 10.9 18.2 9.3 19.4 8.1L20.4 7.1C21 6.5 21.3 5.7 21.3 4.8V1C21.3 0.4 21.7 0 22.3 0C22.9 0 23.3 0.4 23.3 1V4.9C23.3 6.3 22.8 7.6 21.8 8.6L20.8 9.6C20.1 10.3 19.8 11.3 19.9 12.3C20 12.8 19.6 13.4 19 13.4H18.9Z" fill="#537CC2"/>
<path d="M13.9 4.9C13.6 4.9 13.4 4.8 13.2 4.6L11 2.4L8.89998 4.6C8.49998 5 7.79998 5 7.39998 4.6C6.99998 4.2 6.99998 3.6 7.39998 3.2L10.3 0.3C10.7 -0.1 11.3 -0.1 11.7 0.3L14.6 3.2C15 3.6 15 4.2 14.6 4.6C14.4 4.8 14.1 4.9 13.9 4.9Z" fill="#537CC2"/>
<path d="M7.59999 13.4C7.09999 13.4 6.69999 13 6.59999 12.5C6.39999 10.9 6.89999 9.3 8.09999 8.1L9.09999 7.1C9.69999 6.5 9.99999 5.7 9.99999 4.9V1C9.99999 0.4 10.4 0 11 0C11.6 0 12 0.4 12 1V4.9C12 6.3 11.5 7.6 10.5 8.6L9.49999 9.6C8.79999 10.3 8.49999 11.3 8.59999 12.3C8.69999 12.8 8.29999 13.4 7.69999 13.4C7.69999 13.4 7.69999 13.4 7.59999 13.4Z" fill="#537CC2"/>
<path d="M59 45H1C0.4 45 0 44.6 0 44C0 43.4 0.4 43 1 43H59C60.3 43 61.4 41.9 61.4 40.6V36.2C61.4 34.9 60.3 33.8 59 33.8H31.2C30.6 33.8 30.2 33.4 30.2 32.8C30.2 32.2 30.6 31.8 31.2 31.8H59C61.4 31.8 63.4 33.8 63.4 36.2V40.6C63.4 43 61.5 45 59 45Z" fill="#537CC2"/>
<path d="M60.0999 33.9C59.4999 33.9 59.0999 33.5 59.0999 32.9V22.1C59.0999 20.8 58 19.7 56.7 19.7H40.7C40.1 19.7 39.7 19.3 39.7 18.7C39.7 18.1 40.1 17.7 40.7 17.7H56.7C59.1 17.7 61.0999 19.7 61.0999 22.1V32.9C61.0999 33.5 60.5999 33.9 60.0999 33.9Z" fill="#537CC2"/>
<path d="M20.9 19.7C20.4 19.7 20.1 19.7 20.1 19.7H1C0.4 19.7 0 19.3 0 18.7C0 18.1 0.4 17.7 1 17.7H20.1C20.2 17.7 30.8 18.1 35.5 12.9C41.4 6.40001 45.8 9.10001 46.6 9.70001C47.8 10.6 51.5 14 48.2 19.2C47.9 19.7 47.3 19.8 46.8 19.5C46.3 19.2 46.2 18.6 46.5 18.1C48.7 14.5 46.8 12.3 45.4 11.3C44.8 10.9 41.7 9.00001 36.9 14.2C32.4 19.3 23.7 19.7 20.9 19.7Z" fill="#537CC2"/>
<path d="M31 32C30.6 32 30.2 31.8 30.1 31.4C29.9 30.9 30.1 30.3 30.6 30.1C30.7 30.1 38.8 26.6 39.5 19.4C39.8 16.2 40.8 14.1 42.3 13C43.7 12 45 12.3 45.2 12.3C45.7 12.4 46.1 13 45.9 13.5C45.8 14 45.2 14.4 44.7 14.2C44.7 14.2 44.1 14.1 43.4 14.6C42.7 15.1 41.8 16.4 41.5 19.6C40.7 28 31.8 31.8 31.4 32C31.3 32 31.2 32 31 32Z" fill="#537CC2"/>
<path d="M17.1 33.6H1C0.4 33.6 0 33.2 0 32.6C0 32 0.4 31.6 1 31.6H17.1C17.7 31.6 18.1 32 18.1 32.6C18.1 33.1 17.7 33.6 17.1 33.6Z" fill="#537CC2"/>
<path d="M21 35.6C20.7 35.6 20.4 35.5 20.1 35.3C19.7 35 19.5 34.6 19.5 34.1V30.1C19.5 29.6 19.7 29.2 20.1 28.9C20.5 28.6 21 28.5 21.4 28.7L27.9 30.7C28.5 30.9 28.9 31.5 28.9 32.1C28.9 32.7 28.5 33.3 27.9 33.5L21.4 35.5C21.3 35.6 21.2 35.6 21 35.6ZM21.6 30.9V33.4L25.7 32.1L21.6 30.9Z" fill="#537CC2"/>
<path d="M56.1 33.6C55.5 33.6 55.1 33.2 55.1 32.6V26C55.1 25.2 54.4 24.5 53.6 24.5H39.6C39 24.5 38.6 24.1 38.6 23.5C38.6 22.9 39 22.5 39.6 22.5H53.6C55.6 22.5 57.1 24.1 57.1 26V32.6C57.1 33.2 56.6 33.6 56.1 33.6Z" fill="#537CC2"/>
<path d="M48.2 29.3H35.6C35 29.3 34.6 28.9 34.6 28.3C34.6 27.7 35 27.3 35.6 27.3H48.2C49 27.3 49.7 26.6 49.7 25.8V18.7C49.7 18.1 50.1 17.7 50.7 17.7C51.3 17.7 51.7 18.1 51.7 18.7V25.8C51.8 27.7 50.2 29.3 48.2 29.3Z" fill="#537CC2"/>
<path d="M45.3 33.6C44.7 33.6 44.3 33.2 44.3 32.6V23.4C44.3 22.8 44.7 22.4 45.3 22.4C45.9 22.4 46.3 22.8 46.3 23.4V32.6C46.3 33.2 45.9 33.6 45.3 33.6Z" fill="#537CC2"/>
</g>
<defs>
<clipPath id="clip0">
<rect width="63.4" height="63" fill="white"/>
</clipPath>
</defs>
</svg>
