<svg width="64" height="39" viewBox="0 0 64 39" fill="none" xmlns="http://www.w3.org/2000/svg">
<g clip-path="url(#clip0)">
<path d="M57.2 38.4H1C0.4 38.4 0 38 0 37.4C0 36.8 0.4 36.4 1 36.4H57.2C59.5 36.4 61.3 34.6 61.3 32.3V6.1C61.3 3.8 59.5 2 57.2 2H1C0.4 2 0 1.6 0 1C0 0.4 0.4 0 1 0H57.2C60.6 0 63.3 2.7 63.3 6.1V32.3C63.3 35.7 60.5 38.4 57.2 38.4Z" fill="#537CC2"/>
<path d="M44.2 25.7C43.6 25.7 43.2 25.3 43.2 24.7V14.8C43.2 13.3 42 12.1 40.5 12.1H19.6C18.1 12.1 16.9 13.3 16.9 14.8V24.7C16.9 25.3 16.5 25.7 15.9 25.7C15.3 25.7 14.9 25.3 14.9 24.7V14.8C14.9 12.2 17 10.1 19.6 10.1H40.5C43.1 10.1 45.2 12.2 45.2 14.8V24.7C45.2 25.3 44.8 25.7 44.2 25.7Z" fill="#537CC2"/>
<path d="M39.1 25.7C38.5 25.7 38.1 25.3 38.1 24.7V17H22.1V24.7C22.1 25.3 21.7 25.7 21.1 25.7C20.5 25.7 20.1 25.3 20.1 24.7V16C20.1 15.4 20.5 15 21.1 15H39.1C39.7 15 40.1 15.4 40.1 16V24.7C40.1 25.3 39.6 25.7 39.1 25.7Z" fill="#537CC2"/>
</g>
<defs>
<clipPath id="clip0">
<rect width="63.3" height="38.4" fill="white"/>
</clipPath>
</defs>
</svg>
