<svg style="stroke: #46555c;">
  <g id="cart-icon">
    <style type="text/css">
      .cart-icon{fill:none;stroke-width:2;stroke-miterlimit:10;}
    </style>
    <path class="cart-icon" d="M17.3,15.9c1,0,1.9,0.8,1.9,1.9s-0.8,1.9-1.9,1.9s-1.9-0.8-1.9-1.9"></path>
    <path class="cart-icon" d="M7.5,17.8c0,1-0.8,1.9-1.9,1.9s-1.9-0.8-1.9-1.9c0-1,0.9-1.9,1.9-1.9"></path>
    <path class="cart-icon" d="M4.7,5.6c0,0,0,5.9,0.1,6.5L15.6,12c1.5,0,2.4-0.5,2.9-1.9L20,5.8c0.3-1-0.5-2-1.6-2H4.7"></path>
    <path class="cart-icon" d="M4.7,5.8V3.2c0-1.2-1.4-2.1-2.6-2.1H0"></path>
    <path class="cart-icon" d="M4.7,10.5v3.2c0,1,0.3,2.2,1.7,2.2h10.9"></path>
  </g>
</svg>