<?xml version="1.0" encoding="utf-8"?>
<!-- Generator: Adobe Illustrator 16.0.4, SVG Export Plug-In . SVG Version: 6.00 Build 0)  -->
<!DOCTYPE svg PUBLIC "-//W3C//DTD SVG 1.1//EN" "http://www.w3.org/Graphics/SVG/1.1/DTD/svg11.dtd">
<svg version="1.1" id="Layer_1" xmlns="http://www.w3.org/2000/svg" xmlns:xlink="http://www.w3.org/1999/xlink" x="0px" y="0px"
   width="375.647px" height="259.355px" viewBox="0 0 375.647 259.355" enable-background="new 0 0 375.647 259.355"
   xml:space="preserve">
<g>
  <path fill="#ADB4B8" d="M375.634,86.584c0.174-5.658-3.264-10.957-9.479-14.57L250.436,4.766
    c-10.946-6.36-28.148-6.364-39.161-0.007L9.57,121.213c-5.619,3.244-9.007,7.817-9.542,12.877L0,134.359l0.005,1.632v37.679
    l0.24,2.156l0.104,0.555c1.075,4.336,4.221,8.125,9.097,10.959l115.719,67.249c5.476,3.183,12.516,4.773,19.564,4.773
    c7.042,0,14.093-1.589,19.596-4.767l201.704-116.454c4.989-2.881,7.988-6.268,8.914-10.068c0.324-1.336,0.604-2.796,0.615-2.857
    l0.089-0.465V86.584H375.634z M5.82,135.976H5.005l0.815-0.002C5.82,135.974,5.82,135.975,5.82,135.976z M9.844,135.962
    l0.162-0.001l-0.003-1.015c0.082-0.339,0.191-0.674,0.328-1.007c0.011-0.024,0.022-0.05,0.034-0.075
    c0.046-0.108,0.11-0.215,0.162-0.322c0.725-1.277,2.119-2.558,4.044-3.669L216.274,13.419c1.123-0.648,2.363-1.195,3.673-1.66
    c2.806-0.714,5.866-1.1,9.046-1.1c5.976,0,11.548,1.326,15.689,3.732L357.98,80.235c3.786,2.199,5.869,5.011,5.865,7.916
    c-0.004,2.931-2.124,5.768-5.969,7.988L160.392,210.158c-4.173,2.41-9.762,3.737-15.738,3.737c0,0-0.001,0-0.001,0
    c-5.975-0.001-11.546-1.326-15.689-3.734L15.665,144.318c-3.134-1.821-5.079-4.065-5.659-6.433v-1.909H9.842
    C9.842,135.971,9.844,135.966,9.844,135.962z M365.647,123.789c-0.094,0.466-0.252,1.222-0.422,1.922
    c-0.039,0.161-0.488,1.63-4.196,3.771L159.326,245.935c-7.926,4.575-21.268,4.58-29.136,0.007L14.471,178.693
    c-2.336-1.357-3.872-2.948-4.354-4.502l-0.111-0.848v-28.234c1.039,0.961,2.254,1.857,3.649,2.668l113.298,65.843
    c4.744,2.757,11.029,4.274,17.699,4.275c0.001,0,0.001,0,0.002,0c6.667,0,12.966-1.518,17.738-4.272L359.877,99.604
    c2.485-1.435,4.424-3.129,5.771-4.996V123.789z M367.725,86.584c-0.008-0.049-0.024-0.097-0.033-0.146l2.966,0.146H367.725z"/>
  <g enable-background="new    ">
    <g>
      <g>
        <g>
          <path fill="#ADB4B8" d="M58.951,127.247c-2.394,1.382-2.407,3.616-0.028,4.999c2.379,1.383,6.241,1.387,8.636,0.003
            c2.394-1.382,2.4-3.62,0.021-5.001C65.202,125.865,61.345,125.865,58.951,127.247"/>
        </g>
        <g>
          <path fill="#ADB4B8" d="M88.333,144.322c-2.394,1.382-2.401,3.62-0.028,4.999c2.379,1.382,6.241,1.386,8.636,0.003
            c2.394-1.382,2.4-3.62,0.021-5.002C94.59,142.943,90.727,142.94,88.333,144.322"/>
        </g>
        <g>
          <path fill="#ADB4B8" d="M117.714,161.396c-2.394,1.383-2.401,3.62-0.028,4.999c2.379,1.383,6.241,1.387,8.636,0.003
            c2.394-1.382,2.4-3.619,0.021-5.002C123.971,160.017,120.108,160.014,117.714,161.396"/>
        </g>
        <g>
          <path fill="#ADB4B8" d="M147.096,178.471c-2.394,1.382-2.401,3.62-0.022,5.002c2.373,1.379,6.235,1.383,8.63,0
            c2.394-1.382,2.4-3.62,0.028-4.998C153.353,177.092,149.49,177.089,147.096,178.471"/>
        </g>
        <g>
          <path fill="#ADB4B8" d="M91.385,108.521c-2.394,1.382-2.407,3.616-0.028,4.998c2.379,1.383,6.241,1.387,8.636,0.004
            c2.394-1.382,2.407-3.623,0.028-5.006C97.642,107.135,93.779,107.139,91.385,108.521"/>
        </g>
        <g>
          <path fill="#ADB4B8" d="M120.767,125.596c-2.394,1.382-2.4,3.62-0.028,4.999c2.379,1.383,6.241,1.387,8.636,0.004
            c2.394-1.382,2.406-3.623,0.028-5.006C127.03,124.214,123.161,124.214,120.767,125.596"/>
        </g>
        <g>
          <path fill="#ADB4B8" d="M150.148,142.67c-2.394,1.382-2.4,3.62-0.028,4.998c2.379,1.383,6.241,1.387,8.636,0.004
            c2.394-1.382,2.406-3.623,0.028-5.006C156.411,141.289,152.542,141.289,150.148,142.67"/>
        </g>
        <g>
          <path fill="#ADB4B8" d="M179.53,159.746c-2.394,1.382-2.4,3.62-0.022,5.002c2.373,1.379,6.235,1.383,8.63,0
            c2.394-1.382,2.406-3.623,0.034-5.002C185.792,158.363,181.924,158.363,179.53,159.746"/>
        </g>
        <g>
          <path fill="#ADB4B8" d="M123.819,89.795c-2.388,1.379-2.407,3.616-0.028,4.998c2.379,1.383,6.248,1.383,8.636,0.004
            c2.394-1.382,2.407-3.623,0.028-5.006C130.076,88.409,126.213,88.414,123.819,89.795"/>
        </g>
        <g>
          <path fill="#ADB4B8" d="M153.201,106.87c-2.388,1.379-2.4,3.62-0.028,4.998c2.379,1.383,6.248,1.383,8.636,0.004
            c2.394-1.382,2.407-3.623,0.028-5.006C159.465,105.488,155.595,105.488,153.201,106.87"/>
        </g>
        <g>
          <path fill="#ADB4B8" d="M182.582,123.945c-2.388,1.379-2.4,3.62-0.028,4.998c2.379,1.383,6.248,1.383,8.636,0.004
            c2.394-1.382,2.407-3.623,0.027-5.006C188.846,122.563,184.976,122.563,182.582,123.945"/>
        </g>
        <g>
          <path fill="#ADB4B8" d="M211.964,141.019c-2.388,1.38-2.4,3.62-0.022,5.002c2.373,1.38,6.242,1.38,8.63,0
            c2.395-1.382,2.407-3.622,0.034-5.002C218.228,139.637,214.357,139.637,211.964,141.019"/>
        </g>
        <g>
          <path fill="#ADB4B8" d="M156.253,71.07c-2.388,1.379-2.407,3.616-0.028,4.999c2.379,1.382,6.248,1.382,8.636,0.003
            c2.394-1.382,2.407-3.623,0.028-5.006C162.51,69.684,158.647,69.688,156.253,71.07"/>
        </g>
        <g>
          <path fill="#ADB4B8" d="M185.635,88.144c-2.388,1.379-2.401,3.62-0.028,4.999c2.377,1.382,6.248,1.382,8.636,0.003
            c2.394-1.382,2.405-3.623,0.027-5.006C191.897,86.762,188.028,86.762,185.635,88.144"/>
        </g>
        <g>
          <path fill="#ADB4B8" d="M215.017,105.219c-2.389,1.379-2.401,3.62-0.028,4.999c2.379,1.382,6.248,1.382,8.636,0.003
            c2.395-1.382,2.406-3.623,0.028-5.006C221.279,103.837,217.41,103.837,215.017,105.219"/>
        </g>
        <g>
          <path fill="#ADB4B8" d="M244.397,122.293c-2.388,1.379-2.4,3.62-0.021,5.002c2.373,1.379,6.242,1.379,8.63,0
            c2.395-1.382,2.407-3.623,0.034-5.002C250.661,120.912,246.792,120.912,244.397,122.293"/>
        </g>
        <g>
          <path fill="#ADB4B8" d="M188.688,52.344c-2.388,1.379-2.407,3.616-0.028,4.999c2.379,1.382,6.248,1.382,8.636,0.003
            c2.395-1.382,2.407-3.623,0.028-5.006C194.944,50.958,191.081,50.962,188.688,52.344"/>
        </g>
        <g>
          <path fill="#ADB4B8" d="M218.069,69.418c-2.389,1.379-2.401,3.62-0.028,4.999c2.379,1.382,6.248,1.382,8.636,0.003
            c2.395-1.382,2.406-3.623,0.028-5.006C224.332,68.037,220.463,68.037,218.069,69.418"/>
        </g>
        <g>
          <path fill="#ADB4B8" d="M247.45,86.493c-2.388,1.379-2.4,3.62-0.027,4.999c2.379,1.382,6.247,1.382,8.636,0.003
            c2.394-1.382,2.406-3.623,0.027-5.006C253.713,85.111,249.845,85.111,247.45,86.493"/>
        </g>
        <g>
          <path fill="#ADB4B8" d="M276.832,103.568c-2.388,1.379-2.401,3.62-0.022,5.002c2.373,1.379,6.242,1.379,8.63,0
            c2.395-1.382,2.406-3.623,0.034-5.002C283.095,102.186,279.226,102.186,276.832,103.568"/>
        </g>
        <g>
          <path fill="#ADB4B8" d="M221.128,33.614c-2.395,1.382-2.413,3.62-0.035,5.002c2.379,1.383,6.248,1.383,8.643,0
            c2.389-1.378,2.4-3.62,0.021-5.002C227.379,32.232,223.516,32.235,221.128,33.614"/>
        </g>
        <g>
          <path fill="#ADB4B8" d="M250.51,50.689c-2.395,1.382-2.407,3.624-0.035,5.002c2.379,1.383,6.248,1.383,8.643,0
            c2.388-1.378,2.4-3.62,0.021-5.002C256.767,49.31,252.897,49.31,250.51,50.689"/>
        </g>
        <g>
          <path fill="#ADB4B8" d="M279.891,67.764c-2.394,1.382-2.407,3.624-0.035,5.002c2.379,1.383,6.248,1.383,8.644,0
            c2.387-1.378,2.399-3.62,0.021-5.002C286.147,66.385,282.278,66.385,279.891,67.764"/>
        </g>
        <g>
          <path fill="#ADB4B8" d="M309.272,84.838c-2.395,1.382-2.407,3.624-0.028,5.006c2.372,1.379,6.241,1.379,8.637-0.004
            c2.387-1.378,2.399-3.62,0.027-4.998C315.529,83.459,311.66,83.459,309.272,84.838"/>
        </g>
      </g>
    </g>
  </g>
</g>
</svg>
