<svg width="67" height="47" viewBox="0 0 67 47" fill="none" xmlns="http://www.w3.org/2000/svg">
<g clip-path="url(#clip0)">
<path d="M33.2 46.3C26.2 46.3 19.3 45.5 12.3 43.9001C11.7 43.8001 11.1 43.7001 10.5 43.8L4.29998 44.8C3.49998 44.9 2.79998 44.7 2.19998 44.1C1.69998 43.5 1.39998 42.8 1.59998 42L2.49998 37.1C2.59998 36.5 2.59998 35.8 2.29998 35.2001C-0.800024 27.2001 -0.800024 19 2.49998 11C2.69998 10.4 2.79998 9.70005 2.69998 9.10005L1.69998 4.20005C1.59998 3.40005 1.79998 2.60005 2.29998 2.10005C2.79998 1.50005 3.59998 1.30005 4.39998 1.40005L11.5 2.60005C25.9 -0.799951 40.6 -0.799951 55 2.60005L62.1 1.40005C62.9 1.30005 63.6 1.50005 64.2 2.10005C64.7 2.70005 65 3.40005 64.8 4.20005L63.9 9.10005C63.8 9.70005 63.8 10.4 64.1 11C67.4 19.1 67.4 27.3 64.1 35.3C63.9 35.9 63.8 36.6001 63.9 37.2001L64.8 42.1C64.9 42.9 64.7 43.6001 64.2 44.2001C63.7 44.8 62.9 45 62.1 44.9001L55.9 43.9001C55.3 43.8001 54.7 43.8 54.1 44C47.2 45.5 40.2 46.3 33.2 46.3ZM11.3 41.8C11.8 41.8 12.3 41.9001 12.8 42C26.3 45.1 40.1 45.1 53.6 42C54.5 41.8 55.3 41.8001 56.2 41.9001L62.4 42.9001C62.6 42.9001 62.7 42.8 62.7 42.8C62.8 42.7001 62.8 42.6 62.8 42.5L61.9 37.6C61.7 36.6 61.8 35.5 62.2 34.6C65.3 27 65.3 19.3 62.2 11.8C61.8 10.8 61.7 9.80005 61.9 8.80005L62.8 3.90005C62.8 3.70005 62.8 3.60005 62.7 3.60005C62.7 3.50005 62.5 3.50005 62.4 3.50005L55.2 4.70005C55.1 4.70005 54.9 4.70005 54.7 4.70005C40.4 1.30005 26 1.30005 11.7 4.70005C11.6 4.70005 11.4 4.70005 11.3 4.70005L4.09998 3.40005C3.89998 3.40005 3.79998 3.50005 3.79998 3.50005C3.69998 3.50005 3.69998 3.70005 3.69998 3.80005L4.59998 8.70005C4.79998 9.70005 4.69998 10.8 4.29998 11.7C1.19998 19.3 1.19998 27 4.29998 34.5C4.69998 35.5 4.79998 36.5 4.59998 37.5L3.69998 42.4001C3.69998 42.6001 3.69998 42.7001 3.79998 42.7001C3.79998 42.8 3.99998 42.8 4.09998 42.8L10.3 41.8C10.6 41.8 11 41.8 11.3 41.8Z" fill="#537CC2"/>
<path d="M33.2 41.3C23.2 41.3 15.1 33.2 15.1 23.2C15.1 13.2 23.3 5 33.2 5C43.1 5 51.3 13.1 51.3 23.1C51.3 33.1 43.2 41.3 33.2 41.3ZM33.2 7C24.3 7 17.1 14.2 17.1 23.1C17.1 32 24.3 39.2 33.2 39.2C42.1 39.2 49.3 32 49.3 23.1C49.3 14.2 42.1 7 33.2 7Z" fill="#537CC2"/>
<path d="M39 34.9001H26.9C24.6 34.9001 22.8 33.1001 22.8 30.8001V22.0001C22.8 20.8001 21.9 19.9001 20.7 19.9001H16.6C16 19.9001 15.6 19.5001 15.6 18.9001C15.6 18.3001 16 17.9001 16.6 17.9001H20.7C23 17.9001 24.8 19.7001 24.8 22.0001V30.8001C24.8 32.0001 25.7 32.9001 26.9 32.9001H39C40.2 32.9001 41.1 32.0001 41.1 30.8001V19.8001C41.1 18.6001 40.2 17.7001 39 17.7001H27.9C25.6 17.7001 23.8 15.9001 23.8 13.6001V8.20007C23.8 7.60007 24.2 7.20007 24.8 7.20007C25.4 7.20007 25.8 7.60007 25.8 8.20007V13.6001C25.8 14.8001 26.7 15.7001 27.9 15.7001H39C41.3 15.7001 43.1 17.5001 43.1 19.8001V30.8001C43.1 33.1001 41.3 34.9001 39 34.9001Z" fill="#537CC2"/>
<path d="M48.9999 31H39.9999C37.6999 31 35.8999 29.2 35.8999 26.9V15.9C35.8999 13.6 37.6999 11.8 39.9999 11.8H45.5999C46.1999 11.8 46.5999 12.2 46.5999 12.8C46.5999 13.4 46.1999 13.8 45.5999 13.8H39.9999C38.7999 13.8 37.8999 14.7 37.8999 15.9V26.9C37.8999 28.1 38.7999 29 39.9999 29H48.9999C49.5999 29 49.9999 29.4 49.9999 30C49.9999 30.6 49.4999 31 48.9999 31Z" fill="#537CC2"/>
<path d="M28.8999 31.0001H19.2999C18.6999 31.0001 18.2999 30.6001 18.2999 30.0001C18.2999 29.4001 18.6999 29.0001 19.2999 29.0001H28.8999C30.0999 29.0001 30.9999 28.1001 30.9999 26.9001V6.1001C30.9999 5.5001 31.3999 5.1001 31.9999 5.1001C32.5999 5.1001 32.9999 5.5001 32.9999 6.1001V26.9001C32.8999 29.1001 31.0999 31.0001 28.8999 31.0001Z" fill="#537CC2"/>
<path d="M46.3999 34.7001C45.7999 34.7001 45.3999 34.3001 45.3999 33.7001V21.3001C45.3999 19.3001 46.7999 17.6001 48.7999 17.3001C49.2999 17.2001 49.8999 17.6001 49.9999 18.1001C50.0999 18.6001 49.6999 19.2001 49.1999 19.3001C48.1999 19.5001 47.4999 20.3001 47.4999 21.4001V33.8001C47.3999 34.3001 46.9999 34.7001 46.3999 34.7001Z" fill="#537CC2"/>
<path d="M50.2 26.2001H16.2C15.6 26.2001 15.2 25.8001 15.2 25.2001C15.2 24.6001 15.6 24.2001 16.2 24.2001H50.2C50.7999 24.2001 51.2 24.6001 51.2 25.2001C51.2 25.8001 50.7999 26.2001 50.2 26.2001Z" fill="#537CC2"/>
</g>
<defs>
<clipPath id="clip0">
<rect width="66.5" height="46.3" fill="white"/>
</clipPath>
</defs>
</svg>
