<svg width="100" height="39" viewBox="0 0 100 39" fill="none" xmlns="http://www.w3.org/2000/svg">
<g clip-path="url(#clip0)">
<path d="M67.6 38.9C67 38.9 66.6 38.5 66.6 37.9V6.6C66.6 4 64.5 2 62 2H50.3V17.5C50.3 18.1 49.9 18.5 49.3 18.5C48.7 18.5 48.3 18.1 48.3 17.5V1C48.3 0.4 48.7 0 49.3 0H62C65.6 0 68.6 2.9 68.6 6.6V38C68.6 38.5 68.1 38.9 67.6 38.9Z" fill="#537CC2"/>
<path d="M31.1001 38.9C30.5001 38.9 30.1001 38.5 30.1001 37.9V6.6C30.1001 3 33.0001 0 36.7001 0H49.4001C50.0001 0 50.4001 0.4 50.4001 1V17.5C50.4001 18.1 50.0001 18.5 49.4001 18.5C48.8001 18.5 48.4001 18.1 48.4001 17.5V2H36.7001C34.2001 2 32.1001 4 32.1001 6.6V38C32.1001 38.5 31.7001 38.9 31.1001 38.9Z" fill="#537CC2"/>
<path d="M84.9 27.4C80 27.4 76 23.4 76 18.5C76 13.6 80 9.6 84.9 9.6C85.5 9.6 85.9 10 85.9 10.6C85.9 11.2 85.5 11.6 84.9 11.6C81.1 11.6 78 14.7 78 18.5C78 22.3 81.1 25.4 84.9 25.4C85.5 25.4 85.9 25.8 85.9 26.4C85.9 27 85.5 27.4 84.9 27.4Z" fill="#537CC2"/>
<path d="M84.9001 11.7C84.3001 11.7 83.9001 11.3 83.9001 10.7V5.4C83.9001 4.8 84.3001 4.4 84.9001 4.4C85.5001 4.4 85.9001 4.8 85.9001 5.4V10.7C85.9001 11.3 85.5001 11.7 84.9001 11.7Z" fill="#537CC2"/>
<path d="M79.4001 14C79.1001 14 78.9001 13.9 78.7001 13.7L74.9001 10C74.5001 9.6 74.5001 9 74.9001 8.6C75.3001 8.2 75.9001 8.2 76.3001 8.6L80.1001 12.4C80.5001 12.8 80.5001 13.4 80.1001 13.8C79.9001 13.9 79.6001 14 79.4001 14Z" fill="#537CC2"/>
<path d="M77.1 19.6H71.8C71.2 19.6 70.8 19.2 70.8 18.6C70.8 18 71.2 17.6 71.8 17.6H77.1C77.7 17.6 78.1 18 78.1 18.6C78.1 19.2 77.6 19.6 77.1 19.6Z" fill="#537CC2"/>
<path d="M75.6001 28.9C75.3001 28.9 75.1001 28.8 74.9001 28.6C74.5001 28.2 74.5001 27.6 74.9001 27.2L78.7001 23.4C79.1001 23 79.7001 23 80.1001 23.4C80.5001 23.8 80.5001 24.4 80.1001 24.8L76.3001 28.6C76.1001 28.8 75.9001 28.9 75.6001 28.9Z" fill="#537CC2"/>
<path d="M84.9001 32.7C84.3001 32.7 83.9001 32.3 83.9001 31.7V26.4C83.9001 25.8 84.3001 25.4 84.9001 25.4C85.5001 25.4 85.9001 25.8 85.9001 26.4V31.7C85.9001 32.3 85.5001 32.7 84.9001 32.7Z" fill="#537CC2"/>
<path d="M84.9001 27.4C84.3001 27.4 83.9001 27 83.9001 26.4C83.9001 25.8 84.3001 25.4 84.9001 25.4C88.7001 25.4 91.8001 22.3 91.8001 18.5C91.8001 14.7 88.7001 11.6 84.9001 11.6C84.3001 11.6 83.9001 11.2 83.9001 10.6C83.9001 10 84.3001 9.6 84.9001 9.6C89.8001 9.6 93.8001 13.6 93.8001 18.5C93.8001 23.4 89.8001 27.4 84.9001 27.4Z" fill="#537CC2"/>
<path d="M84.9001 32.7C84.3001 32.7 83.9001 32.3 83.9001 31.7V26.4C83.9001 25.8 84.3001 25.4 84.9001 25.4C85.5001 25.4 85.9001 25.8 85.9001 26.4V31.7C85.9001 32.3 85.5001 32.7 84.9001 32.7Z" fill="#537CC2"/>
<path d="M94.2001 28.9C93.9001 28.9 93.7001 28.8 93.5001 28.6L89.7001 24.8C89.3001 24.4 89.3001 23.8 89.7001 23.4C90.1001 23 90.7001 23 91.1001 23.4L94.9002 27.2C95.3002 27.6 95.3002 28.2 94.9002 28.6C94.7002 28.8 94.5001 28.9 94.2001 28.9Z" fill="#537CC2"/>
<path d="M98.1 19.6H92.8C92.2 19.6 91.8 19.2 91.8 18.6C91.8 18 92.2 17.6 92.8 17.6H98.1C98.7 17.6 99.1 18 99.1 18.6C99.1 19.2 98.6 19.6 98.1 19.6Z" fill="#537CC2"/>
<path d="M90.5002 14C90.2002 14 90.0002 13.9 89.8002 13.7C89.4002 13.3 89.4002 12.7 89.8002 12.3L93.6002 8.5C94.0002 8.1 94.6002 8.1 95.0002 8.5C95.4002 8.9 95.4002 9.5 95.0002 9.9L91.2002 13.7C91.0002 13.9 90.7002 14 90.5002 14Z" fill="#537CC2"/>
<path d="M84.9001 11.7C84.3001 11.7 83.9001 11.3 83.9001 10.7V5.4C83.9001 4.8 84.3001 4.4 84.9001 4.4C85.5001 4.4 85.9001 4.8 85.9001 5.4V10.7C85.9001 11.3 85.5001 11.7 84.9001 11.7Z" fill="#537CC2"/>
<path d="M12 19C11.4 19 11 18.6 11 18V5.3C11 4.7 11.4 4.3 12 4.3C12.6 4.3 13 4.7 13 5.3V18C13 18.5 12.5 19 12 19Z" fill="#537CC2"/>
<path d="M12 11.4C11.7 11.4 11.5 11.3 11.3 11.1C10.9 10.7 10.9 10.1 11.3 9.7L14 7C14.4 6.6 15 6.6 15.4 7C15.8 7.4 15.8 8 15.4 8.4L12.7 11.1C12.5 11.3 12.2 11.4 12 11.4Z" fill="#537CC2"/>
<path d="M11.9999 19C11.6999 19 11.2999 18.8 11.0999 18.5C10.7999 18 10.9999 17.4 11.4999 17.1L22.4999 10.8C22.9999 10.5 23.5999 10.7 23.8999 11.2C24.1999 11.7 23.9999 12.3 23.4999 12.6L12.4999 18.9C12.2999 18.9 12.0999 19 11.9999 19Z" fill="#537CC2"/>
<path d="M22.2 16.2C22.1 16.2 22 16.2 21.9 16.2L18.3 15.2C17.8 15.1 17.4 14.5 17.6 14C17.7 13.5 18.3 13.1 18.8 13.3L22.4 14.3C22.9 14.4 23.3 15 23.1 15.5C23 15.9 22.6 16.2 22.2 16.2Z" fill="#537CC2"/>
<path d="M18.4999 15.2C18.3999 15.2 18.2999 15.2 18.1999 15.2C17.6999 15.1 17.2999 14.5 17.4999 14L18.4999 10.4C18.5999 9.9 19.1999 9.5 19.6999 9.7C20.1999 9.8 20.5999 10.4 20.3999 10.9L19.3999 14.5C19.3999 14.9 18.9999 15.2 18.4999 15.2Z" fill="#537CC2"/>
<path d="M23 25.3C22.8 25.3 22.7 25.3 22.5 25.2L11.5 18.9C11 18.6 10.9 18 11.1 17.5C11.4 17 12 16.9 12.5 17.1L23.5 23.4C24 23.7 24.1 24.3 23.9 24.8C23.6 25.2 23.3 25.3 23 25.3Z" fill="#537CC2"/>
<path d="M19.4999 26.4C19.0999 26.4 18.6999 26.1 18.4999 25.7L17.4999 22.1C17.3999 21.6 17.6999 21 18.1999 20.9C18.6999 20.8 19.2999 21.1 19.3999 21.6L20.3999 25.2C20.4999 25.7 20.1999 26.3 19.6999 26.4C19.6999 26.4 19.5999 26.4 19.4999 26.4Z" fill="#537CC2"/>
<path d="M18.4999 22.8C18.0999 22.8 17.6999 22.5 17.4999 22.1C17.3999 21.6 17.6999 21 18.1999 20.9L21.7999 19.9C22.2999 19.8 22.8999 20.1 22.9999 20.6C23.0999 21.1 22.7999 21.7 22.2999 21.8L18.6999 22.8C18.6999 22.8 18.5999 22.8 18.4999 22.8Z" fill="#537CC2"/>
<path d="M12 31.7C11.4 31.7 11 31.3 11 30.7V18C11 17.4 11.4 17 12 17C12.6 17 13 17.4 13 18V30.7C13 31.2 12.5 31.7 12 31.7Z" fill="#537CC2"/>
<path d="M14.5999 29.2C14.2999 29.2 14.0999 29.1 13.8999 28.9L11.1999 26.2C10.7999 25.8 10.7999 25.2 11.1999 24.8C11.5999 24.4 12.1999 24.4 12.5999 24.8L15.2999 27.5C15.6999 27.9 15.6999 28.5 15.2999 28.9C15.1999 29.1 14.8999 29.2 14.5999 29.2Z" fill="#537CC2"/>
<path d="M12 31.7C11.4 31.7 11 31.3 11 30.7V18C11 17.4 11.4 17 12 17C12.6 17 13 17.4 13 18V30.7C13 31.2 12.5 31.7 12 31.7Z" fill="#537CC2"/>
<path d="M9.30005 29.2C9.00005 29.2 8.80005 29.1 8.60005 28.9C8.20005 28.5 8.20005 27.9 8.60005 27.5L11.3 24.8C11.7 24.4 12.3 24.4 12.7 24.8C13.1 25.2 13.1 25.8 12.7 26.2L10 28.9C9.80005 29.1 9.60005 29.2 9.30005 29.2Z" fill="#537CC2"/>
<path d="M0.999938 25.3C0.699938 25.3 0.299938 25.1 0.0999384 24.8C-0.200062 24.3 -6.16312e-05 23.7 0.499938 23.4L11.4999 17.1C11.9999 16.8 12.5999 17 12.8999 17.5C13.1999 18 12.9999 18.6 12.4999 18.9L1.49994 25.2C1.29994 25.3 1.19994 25.3 0.999938 25.3Z" fill="#537CC2"/>
<path d="M5.39991 22.8C5.29991 22.8 5.19991 22.8 5.09991 22.8L1.49991 21.8C0.99991 21.7 0.599911 21.1 0.799911 20.6C0.999911 20 1.49991 19.7 1.99991 19.8L5.59991 20.8C6.19991 21 6.49991 21.5 6.39991 22C6.29991 22.5 5.89991 22.8 5.39991 22.8Z" fill="#537CC2"/>
<path d="M4.49986 26.4C4.39986 26.4 4.29986 26.4 4.19986 26.4C3.69986 26.3 3.29986 25.7 3.49986 25.2L4.49986 21.6C4.59986 21.1 5.19986 20.7 5.69986 20.9C6.19986 21 6.49986 21.5 6.39986 22L5.39986 25.6C5.29986 26.1 4.89986 26.4 4.49986 26.4Z" fill="#537CC2"/>
<path d="M12 19C11.8 19 11.7 19 11.5 18.9L0.499993 12.6C-7.48038e-06 12.3 -0.100007 11.7 0.0999925 11.2C0.399993 10.7 0.999992 10.6 1.49999 10.8L12.5 17.1C13 17.4 13.1 18 12.9 18.5C12.7 18.8 12.3 19 12 19Z" fill="#537CC2"/>
<path d="M5.40002 15.2C5.00002 15.2 4.60002 14.9 4.40002 14.5L3.40002 10.9C3.30002 10.4 3.60002 9.8 4.10002 9.7C4.60002 9.6 5.20002 9.9 5.30002 10.4L6.30002 14C6.40002 14.5 6.10002 15.1 5.60002 15.2C5.60002 15.2 5.50002 15.2 5.40002 15.2Z" fill="#537CC2"/>
<path d="M1.79992 16.2C1.39992 16.2 0.999922 15.9 0.799922 15.5C0.699922 15 0.999922 14.4 1.49992 14.3L5.09992 13.3C5.59992 13.2 6.19992 13.5 6.29992 14C6.39992 14.5 6.09992 15.1 5.59992 15.2L1.99992 16.2C1.99992 16.2 1.89992 16.2 1.79992 16.2Z" fill="#537CC2"/>
<path d="M12 19C11.4 19 11 18.6 11 18V5.3C11 4.7 11.4 4.3 12 4.3C12.6 4.3 13 4.7 13 5.3V18C13 18.5 12.5 19 12 19Z" fill="#537CC2"/>
<path d="M12 11.4C11.7 11.4 11.5 11.3 11.3 11.1L8.60005 8.5C8.20005 8.1 8.20005 7.5 8.60005 7.1C9.00005 6.7 9.60005 6.7 10 7.1L12.7 9.8C13.1 10.2 13.1 10.8 12.7 11.2C12.5 11.3 12.2 11.4 12 11.4Z" fill="#537CC2"/>
<path d="M51.4 29H47.4C46.9 29 46.5 28.8 46.2 28.4C45.9 28 45.8 27.5 46 27.1L48 20.6C48.2 20 48.7 19.6 49.4 19.6C50 19.6 50.6 20 50.8 20.6L52.8 27.1C52.9 27.5 52.9 28 52.6 28.4C52.3 28.7 51.8 29 51.4 29ZM48.1 27H50.7L49.4 22.8L48.1 27Z" fill="#537CC2"/>
<path d="M49.3 38.9C48.7 38.9 48.3 38.5 48.3 37.9V31.7C48.3 31.1 48.7 30.7 49.3 30.7C49.9 30.7 50.3 31.1 50.3 31.7V37.9C50.3 38.5 49.9 38.9 49.3 38.9Z" fill="#537CC2"/>
</g>
<defs>
<clipPath id="clip0">
<rect width="99.1" height="38.9" fill="white"/>
</clipPath>
</defs>
</svg>
