<svg width="44" height="44" viewBox="0 0 44 44" fill="none" xmlns="http://www.w3.org/2000/svg">
<g clip-path="url(#clip0)">
<path d="M32.0001 27.5H25.0001C22.6001 27.5 20.6001 25.5 20.6001 23.1V10C20.6001 7.60001 22.6001 5.60001 25.0001 5.60001H35.7001C36.3001 5.60001 36.7001 6.00001 36.7001 6.60001C36.7001 7.20001 36.3001 7.60001 35.7001 7.60001H24.9001C23.6001 7.60001 22.5001 8.70001 22.5001 10V23.2C22.5001 24.5 23.6001 25.6 24.9001 25.6H31.9001C33.2001 25.6 34.3001 24.5 34.3001 23.2V13.1C34.3001 10.9 36.0001 9.00001 38.2001 8.80001C38.8001 8.70001 39.2001 9.10001 39.3001 9.70001C39.4001 10.2 39.0001 10.7 38.4001 10.8C37.2001 10.9 36.3001 12 36.3001 13.2V23.3C36.3001 25.6 34.4001 27.5 32.0001 27.5Z" fill="#537CC2"/>
<path d="M25.9001 42.7C25.3001 42.7 24.9001 42.3 24.9001 41.7V24.2C24.9001 21.8 26.9001 19.8 29.3001 19.8H42.2001C42.8001 19.8 43.2001 20.2 43.2001 20.8C43.2001 21.4 42.8001 21.8 42.2001 21.8H29.2001C27.9001 21.8 26.8001 22.9 26.8001 24.2V41.7C26.9001 42.2 26.4001 42.7 25.9001 42.7Z" fill="#537CC2"/>
<path d="M35.8 37.1C35.2 37.1 34.8 36.7 34.8 36.1V29.3C34.8 26.9 36.8001 24.9 39.2001 24.9H41.4001C42.0001 24.9 42.4001 25.3 42.4001 25.9C42.4001 26.5 42.0001 26.9 41.4001 26.9H39.2001C37.9001 26.9 36.8 28 36.8 29.3V36.1C36.8 36.6 36.3 37.1 35.8 37.1Z" fill="#537CC2"/>
<path d="M41.2001 16.5H29.2001C26.8001 16.5 24.8 14.5 24.8 12.1V1.60001C24.8 1.00001 25.2 0.600006 25.8 0.600006C26.4 0.600006 26.8 1.00001 26.8 1.60001V12.1C26.8 13.4 27.9001 14.5 29.2001 14.5H41.2001C41.8001 14.5 42.2001 14.9 42.2001 15.5C42.2001 16.1 41.8001 16.5 41.2001 16.5Z" fill="#537CC2"/>
<path d="M38.3 34.3C37.9 34.3 37.5001 34.1 37.4001 33.7C37.0001 32.8 36.2001 32.3 35.2001 32.3H21.8C21.2 32.3 20.8 31.9 20.8 31.3C20.8 30.7 21.2 30.3 21.8 30.3H35.3C37.1 30.3 38.6 31.3 39.3 32.9C39.5 33.4 39.3 34 38.8 34.2C38.6 34.3 38.5 34.3 38.3 34.3Z" fill="#537CC2"/>
<path d="M27.7001 38H21.8C21.2 38 20.8 37.6 20.8 37C20.8 36.4 21.2 36 21.8 36H27.7001C29.0001 36 30.1 34.9 30.1 33.6V3.3C30.1 2.7 30.5 2.3 31.1 2.3C31.7001 2.3 32.1 2.7 32.1 3.3V33.6C32 36 30.1 38 27.7001 38Z" fill="#537CC2"/>
<path d="M21.6 43.1C9.7 43.1 0 33.5 0 21.6C0 9.7 9.7 0 21.6 0C33.5 0 43.2 9.7 43.2 21.6C43.2 33.5 33.5 43.1 21.6 43.1ZM21.6 2C10.8 2 2 10.8 2 21.6C2 32.4 10.8 41.2 21.6 41.2C32.4 41.2 41.2 32.4 41.2 21.6C41.2 10.8 32.3 2 21.6 2Z" fill="#537CC2"/>
<path d="M21.6001 43.1C21.0001 43.1 20.6001 42.7 20.6001 42.1V1C20.6001 0.4 21.0001 0 21.6001 0C22.2001 0 22.6001 0.4 22.6001 1V42.1C22.6001 42.7 22.1001 43.1 21.6001 43.1Z" fill="#537CC2"/>
</g>
<defs>
<clipPath id="clip0">
<rect width="43.1" height="43.1" fill="white"/>
</clipPath>
</defs>
</svg>
