<?xml version="1.0" encoding="UTF-8" standalone="no"?>
<!DOCTYPE svg PUBLIC "-//W3C//DTD SVG 1.1//EN" "http://www.w3.org/Graphics/SVG/1.1/DTD/svg11.dtd">
<svg width="100%" height="100%" viewBox="0 0 80 66" version="1.1" xmlns="http://www.w3.org/2000/svg" xmlns:xlink="http://www.w3.org/1999/xlink" xml:space="preserve" style="fill-rule:evenodd;clip-rule:evenodd;stroke-linejoin:round;stroke-miterlimit:1.41421;">
    <g id="logo-mark">
        <path d="M59.8,63.9C59.7,63.9 59.6,63.9 59.6,64C59.461,64.005 59.325,64.039 59.2,64.1C58.902,64.125 58.608,64.014 58.4,63.8C58.215,63.537 58.177,63.197 58.3,62.9C58.4,62.7 59.8,56.5 59.8,56.4L59.8,56.2C59.8,56.2 59.6,56.1 59.6,56.2C59.6,56.3 58.1,56.6 58.1,56.6C56.827,55.892 55.273,55.892 54,56.6C52.697,57.415 51.709,58.65 51.2,60.1C50.941,60.975 50.872,61.896 51,62.8C51.135,64.153 52.243,65.219 53.6,65.3C54.696,65.172 55.718,64.679 56.5,63.9C56.528,64.626 57.133,65.207 57.859,65.207C57.906,65.207 57.953,65.205 58,65.2C58.655,65.132 59.296,64.963 59.9,64.7C60,64.7 60,64.6 60.1,64.6L60.1,64.4C60,64 59.9,63.9 59.8,63.9ZM57.7,58.3C57.7,58.3 56.7,62.5 56.7,62.6C56.33,63.304 55.673,63.815 54.9,64C53.5,64.5 52.6,63.1 52.7,61.7C52.738,60.111 53.341,58.586 54.4,57.4C55.024,56.633 56.075,56.35 57,56.7C57.517,57.057 57.789,57.678 57.7,58.3L57.7,58.3Z" style="fill:rgb(42,51,55);fill-rule:nonzero;"/>
        <path d="M26.8,56.8C26.807,56.723 26.843,56.652 26.9,56.6C27.353,56.396 27.821,56.229 28.3,56.1C28.882,55.924 29.514,56.035 30,56.4C30.304,56.838 30.378,57.397 30.2,57.9C30.1,58.2 29.2,61.8 29.2,62.1C29.2,62.4 28.9,63.7 29.8,64C30.7,64.3 32.4,63.4 32.7,62.6C33,61.8 34.2,56.2 34.2,56.2C34.2,56.2 34.2,56.1 34.4,56.1L35.7,56.1C35.806,56.109 35.891,56.194 35.9,56.3C35.8,56.4 34.6,62.2 34.5,62.4C34.367,63.163 34.85,63.909 35.6,64.1C36.606,64.127 37.568,63.683 38.2,62.9C38.85,62.095 39.265,61.126 39.4,60.1C39.459,59.598 39.425,59.09 39.3,58.6C39.081,58.17 38.812,57.768 38.5,57.4C38.276,56.971 38.357,56.442 38.7,56.1C39.135,55.747 39.765,55.747 40.2,56.1C40.504,56.5 40.647,57 40.6,57.5C40.619,58.416 40.484,59.329 40.2,60.2C39.892,61.335 39.346,62.391 38.6,63.3C37.736,64.456 36.34,65.098 34.9,65C33.885,64.95 33.004,64.269 32.7,63.3C32.396,62.331 30.9,65.5 29,64.9C28.029,64.605 27.361,63.704 27.361,62.69C27.361,62.42 27.408,62.153 27.5,61.9C27.6,61.4 28.4,58.4 28.5,58.1C28.665,57.776 28.626,57.385 28.4,57.1C28.17,56.856 27.812,56.776 27.5,56.9C27.4,56.9 27,57 26.9,57C26.794,56.991 26.709,56.906 26.7,56.8C26.8,56.9 26.8,56.8 26.8,56.8Z" style="fill:rgb(42,51,55);fill-rule:nonzero;"/>
        <path d="M49,62.7L48.8,62.5C48.774,62.473 48.738,62.458 48.7,62.458C48.662,62.458 48.626,62.473 48.6,62.5C48.492,62.685 48.357,62.854 48.2,63C47.733,63.598 47.051,63.992 46.3,64.1C45.605,64.27 44.871,64.038 44.4,63.5C43.945,62.824 43.734,62.012 43.8,61.2C44.508,61.114 45.21,60.981 45.9,60.8C47.115,60.639 48.242,60.076 49.1,59.2C49.641,58.521 49.757,57.592 49.4,56.8C49,56.1 48.2,55.7 46.7,55.8C45.213,55.977 43.886,56.825 43.1,58.1C42.309,59.2 41.953,60.554 42.1,61.9C42.071,62.906 42.516,63.869 43.3,64.5C44.448,65.235 45.915,65.273 47.1,64.6C47.941,64.228 48.641,63.597 49.1,62.8L49,62.7ZM44.9,57.7C45.44,56.877 46.442,56.476 47.4,56.7C47.726,56.928 47.921,57.302 47.921,57.7C47.921,57.95 47.844,58.195 47.7,58.4C47.465,59.098 46.961,59.674 46.3,60C45.465,60.318 44.59,60.52 43.7,60.6C43.81,59.537 44.227,58.53 44.9,57.7L44.9,57.7Z" style="fill:rgb(42,51,55);fill-rule:nonzero;"/>
        <path d="M78.5,62.7L78.3,62.5C78.274,62.473 78.238,62.458 78.2,62.458C78.162,62.458 78.126,62.473 78.1,62.5C77.992,62.685 77.857,62.854 77.7,63C77.249,63.616 76.559,64.015 75.8,64.1C75.105,64.27 74.371,64.038 73.9,63.5C73.445,62.824 73.234,62.012 73.3,61.2C74.01,61.126 74.712,60.992 75.4,60.8C76.615,60.639 77.742,60.076 78.6,59.2C79.141,58.521 79.257,57.592 78.9,56.8C78.5,56.1 77.7,55.7 76.2,55.8C74.713,55.977 73.386,56.825 72.6,58.1C71.855,59.221 71.503,60.558 71.6,61.9C71.571,62.906 72.016,63.869 72.8,64.5C73.984,65.237 75.48,65.276 76.7,64.6C77.519,64.194 78.21,63.571 78.7,62.8C78.624,62.789 78.554,62.754 78.5,62.7ZM74.4,57.7C74.94,56.877 75.942,56.476 76.9,56.7C77.226,56.928 77.421,57.302 77.421,57.7C77.421,57.95 77.344,58.195 77.2,58.4C76.965,59.098 76.461,59.674 75.8,60C74.965,60.318 74.09,60.52 73.2,60.6C73.31,59.537 73.727,58.53 74.4,57.7L74.4,57.7Z" style="fill:rgb(42,51,55);fill-rule:nonzero;"/>
        <path d="M69.6,60.3C69.882,59.463 70.017,58.583 70,57.7C70.047,57.2 69.904,56.7 69.6,56.3C69.184,55.899 68.516,55.899 68.1,56.3C67.719,56.621 67.633,57.18 67.9,57.6C68,57.8 68.4,58.3 68.7,58.7C68.825,59.19 68.859,59.698 68.8,60.2C68.647,61.19 68.232,62.122 67.6,62.9C66.862,63.826 65.657,64.254 64.5,64C63.6,63.6 63.9,62.4 63.9,62.1C63.9,61.8 64.8,58.2 64.9,57.9C65.073,57.397 64.999,56.84 64.7,56.4C64.269,56.002 63.646,55.885 63.1,56.1C62.621,56.229 62.153,56.396 61.7,56.6C61.645,56.6 61.6,56.645 61.6,56.7L61.6,56.9C61.609,57.006 61.694,57.091 61.8,57.1C61.9,57.1 62.2,57 62.4,57C62.715,56.929 63.045,57.002 63.3,57.2C63.428,57.517 63.462,57.864 63.4,58.2C63.3,58.4 62.5,61.5 62.4,62C62.308,62.253 62.261,62.52 62.261,62.79C62.261,63.804 62.929,64.705 63.9,65C65.482,65.239 67.078,64.631 68.1,63.4C68.815,62.485 69.326,61.428 69.6,60.3L69.6,60.3Z" style="fill:rgb(42,51,55);fill-rule:nonzero;"/>
        <path d="M9,63.9C8.9,63.9 8.8,63.9 8.8,64C8.66,63.996 8.522,64.03 8.4,64.1C8.105,64.107 7.818,64 7.6,63.8C7.415,63.537 7.377,63.197 7.5,62.9C7.6,62.7 9,56.5 9,56.4C8.989,56.324 8.954,56.254 8.9,56.2C8.874,56.173 8.838,56.158 8.8,56.158C8.762,56.158 8.726,56.173 8.7,56.2L7.2,56.6C5.927,55.892 4.373,55.892 3.1,56.6C1.797,57.415 0.809,58.65 0.3,60.1C0.041,60.975 -0.028,61.896 0.1,62.8C0.249,64.184 1.408,65.258 2.8,65.3C3.87,65.182 4.863,64.685 5.6,63.9C5.628,64.626 6.233,65.207 6.959,65.207C7.006,65.207 7.053,65.205 7.1,65.2C7.755,65.132 8.396,64.963 9,64.7C9.055,64.7 9.1,64.655 9.1,64.6L9.1,64.4C9.191,64.232 9.148,64.021 9,63.9L9,63.9ZM6.8,58.3C6.8,58.3 5.8,62.5 5.8,62.6C5.43,63.304 4.773,63.815 4,64C2.6,64.5 1.7,63.1 1.8,61.7C1.838,60.111 2.441,58.586 3.5,57.4C4.127,56.638 5.175,56.356 6.1,56.7C6.653,57.026 6.936,57.673 6.8,58.3L6.8,58.3Z" style="fill:rgb(42,51,55);fill-rule:nonzero;"/>
        <path d="M11,56.7L11.1,56.6C11.2,56.6 11.8,56.3 12.2,56.2C12.495,56.132 12.797,56.098 13.1,56.1C13.459,56.07 13.816,56.178 14.1,56.4C14.43,56.863 14.539,57.449 14.4,58C14.2,58.8 13.3,62.5 13.2,62.8C13.1,63.1 13,64 13.6,64.1C13.864,64.152 14.136,64.152 14.4,64.1C14.541,64.117 14.683,64.081 14.8,64C14.91,64 15,64.09 15,64.2L15,64.4C14.993,64.477 14.957,64.548 14.9,64.6C14.399,64.857 13.858,65.026 13.3,65.1C12.716,65.232 12.104,65.041 11.7,64.6C11.495,64.2 11.425,63.743 11.5,63.3C11.6,63 12.6,58.6 12.7,58.2C12.863,57.828 12.784,57.391 12.5,57.1C12.273,57.03 12.037,56.996 11.8,57C11.7,57 11.2,57.1 11.1,57.1C10.994,57.091 10.909,57.006 10.9,56.9L11,56.7Z" style="fill:rgb(42,51,55);fill-rule:nonzero;"/>
        <path d="M15.8,52.7C15.8,53.358 15.258,53.9 14.6,53.9C13.942,53.9 13.4,53.358 13.4,52.7C13.4,52.686 13.399,52.673 13.399,52.659C13.399,52.023 13.923,51.499 14.559,51.499C14.573,51.499 14.586,51.5 14.6,51.5C15.226,51.577 15.723,52.074 15.8,52.7Z" style="fill:rgb(42,51,55);fill-rule:nonzero;"/>
        <path d="M17.4,56.9C17.4,56.8 17.4,56.8 17.5,56.8C18.025,56.606 18.559,56.44 19.1,56.3C19.542,56.18 20.015,56.253 20.4,56.5C20.64,56.654 20.789,56.915 20.8,57.2L20.8,57.7L20.9,57.7C21.461,57.186 22.063,56.718 22.7,56.3C23.104,56.006 23.629,55.931 24.1,56.1C24.322,56.198 24.525,56.333 24.7,56.5C24.818,56.725 24.918,56.959 25,57.2C25.051,57.464 25.051,57.736 25,58C24.961,58.588 24.488,59.061 23.9,59.1C23.299,59.095 22.805,58.601 22.8,58C22.798,57.634 22.988,57.292 23.3,57.1C22.252,57.258 21.313,57.836 20.7,58.7L19.2,64.9C19.2,65.01 19.11,65.1 19,65.1L17.7,65.1C17.594,65.091 17.509,65.006 17.5,64.9C17.491,64.794 18.9,58.7 19,58.5C19.182,58.13 19.1,57.682 18.8,57.4C18.552,57.278 18.27,57.243 18,57.3C17.832,57.323 17.665,57.357 17.5,57.4C17.394,57.391 17.309,57.306 17.3,57.2C17.354,57.108 17.388,57.006 17.4,56.9Z" style="fill:rgb(42,51,55);fill-rule:nonzero;"/>
    </g>
    <g id="logo-text">
        <rect x="0" y="24.4" width="7.4" height="8.1" style="fill:rgb(42,51,55);"/>
        <path d="M75,0L71.1,0L71.1,1C71.1,1.007 71.1,1.013 71.1,1.02C71.1,3.971 68.671,6.4 65.72,6.4C65.713,6.4 65.707,6.4 65.7,6.4L56,6.4L56,10.8L69.5,10.8C69.507,10.8 69.513,10.8 69.52,10.8C72.471,10.8 74.9,13.229 74.9,16.18C74.9,16.187 74.9,16.193 74.9,16.2L74.9,18L79,18L79,4C79,1.806 77.194,0 75,0Z" style="fill:rgb(42,51,55);fill-rule:nonzero;"/>
        <path d="M9.6,17L9.6,22.2L22,22.2L22,10.9L14.5,10.9C14.493,10.9 14.487,10.9 14.48,10.9C11.529,10.9 9.1,8.471 9.1,5.52C9.1,5.513 9.1,5.507 9.1,5.5L9.1,0L4,0C1.806,0 0,1.806 0,4L0,12.4L4.2,12.4C7.2,12.4 9.6,14.5 9.6,17Z" style="fill:rgb(42,51,55);fill-rule:nonzero;"/>
        <path d="M42.9,34.9L42.9,36.7C42.9,36.707 42.9,36.713 42.9,36.72C42.9,39.671 40.471,42.1 37.52,42.1C37.513,42.1 37.507,42.1 37.5,42.1L11.8,42.1C9.3,42.1 7.3,39.7 7.3,36.7L7.3,34.9L0,34.9L0,41.8C0,43.994 1.806,45.8 4,45.8L48.5,45.8L48.5,34.9L42.9,34.9Z" style="fill:rgb(42,51,55);fill-rule:nonzero;"/>
        <path d="M24.2,8.6L30.8,8.6C31.3,6.073 33.524,4.227 36.1,4.2L53.6,4.2L53.6,1C53.588,0.664 53.622,0.327 53.7,0L23.9,0C24.097,0.58 24.198,1.188 24.2,1.8L24.2,8.6Z" style="fill:rgb(42,51,55);fill-rule:nonzero;"/>
        <rect x="74.9" y="20.4" width="4.1" height="12.3" style="fill:rgb(42,51,55);"/>
        <path d="M50.7,16.3L50.7,22.2L58.8,22.2C58.807,22.2 58.813,22.2 58.82,22.2C61.771,22.2 64.2,24.629 64.2,27.58C64.2,27.587 64.2,27.593 64.2,27.6L64.2,32.6L72.7,32.6L72.7,20.4L59.1,20.4C59.093,20.4 59.087,20.4 59.08,20.4C56.129,20.4 53.7,17.971 53.7,15.02C53.7,15.013 53.7,15.007 53.7,15L53.7,13.2C53.699,13.2 53.699,13.2 53.698,13.2C52.053,13.2 50.698,14.554 50.698,16.2C50.698,16.233 50.699,16.267 50.7,16.3Z" style="fill:rgb(42,51,55);fill-rule:nonzero;"/>
        <path d="M30.8,29.5L30.8,24.4L24.3,24.4L24.3,29.4C24.3,29.407 24.3,29.413 24.3,29.42C24.3,32.371 21.871,34.8 18.92,34.8C18.913,34.8 18.907,34.8 18.9,34.8L9.6,34.8L9.6,36.6C9.6,38.3 10.6,39.8 11.8,39.8L37.4,39.8C37.413,39.8 37.427,39.8 37.44,39.8C39.174,39.8 40.6,38.374 40.6,36.64C40.6,36.627 40.6,36.613 40.6,36.6L40.6,34.8L36.1,34.8C36.07,34.801 36.039,34.801 36.009,34.801C33.151,34.801 30.799,32.449 30.799,29.591C30.799,29.561 30.799,29.53 30.8,29.5L30.8,29.5Z" style="fill:rgb(42,51,55);fill-rule:nonzero;"/>
        <rect x="24.2" y="10.9" width="6.5" height="11.3" style="fill:rgb(42,51,55);"/>
        <rect x="42.9" y="24.4" width="5.6" height="8.2" style="fill:rgb(42,51,55);"/>
        <path d="M9.6,32.6L9.6,24.5L22,24.5L22,29.5C22,29.513 22,29.527 22,29.54C22,31.274 20.574,32.7 18.84,32.7C18.827,32.7 18.813,32.7 18.8,32.7L9.6,32.7" style="fill:rgb(42,51,55);fill-rule:nonzero;"/>
        <path d="M7.4,22.2L0,22.2L0,14.7L4.2,14.7C5.9,14.7 7.4,15.8 7.4,17.1L7.4,22.2L0,22.2" style="fill:rgb(42,51,55);fill-rule:nonzero;"/>
        <path d="M33,24.4L33,29.5C33,29.513 33,29.527 33,29.54C33,31.274 34.426,32.7 36.16,32.7C36.173,32.7 36.187,32.7 36.2,32.7L40.7,32.7L40.7,24.5L33,24.5L33,24.4Z" style="fill:rgb(42,51,55);fill-rule:nonzero;"/>
        <path d="M14.5,8.6L22,8.6L22,1.8C22.002,1.165 21.829,0.543 21.5,0L11.3,0L11.3,5.4C11.3,5.413 11.3,5.427 11.3,5.44C11.3,7.174 12.726,8.6 14.46,8.6C14.473,8.6 14.487,8.6 14.5,8.6L14.5,8.6Z" style="fill:rgb(42,51,55);fill-rule:nonzero;"/>
        <path d="M56,4.2L56,1C56,0.7 56.1,0.3 56.1,0L68.9,0L68.9,1C68.9,1.013 68.9,1.027 68.9,1.04C68.9,2.774 67.474,4.2 65.74,4.2C65.727,4.2 65.713,4.2 65.7,4.2L56,4.2Z" style="fill:rgb(42,51,55);fill-rule:nonzero;"/>
        <path d="M59.1,18.1L72.6,18.1L72.6,16.3C72.6,16.287 72.6,16.273 72.6,16.26C72.6,14.526 71.174,13.1 69.44,13.1C69.427,13.1 69.413,13.1 69.4,13.1L56,13.1L56,15C56.011,16.696 57.404,18.089 59.1,18.1L59.1,18.1Z" style="fill:rgb(42,51,55);fill-rule:nonzero;"/>
        <path d="M58.7,24.4L50.6,24.4L50.6,32.6L61.8,32.6L61.8,27.6C61.802,27.557 61.803,27.513 61.803,27.47C61.803,25.786 60.417,24.4 58.733,24.4C58.722,24.4 58.711,24.4 58.7,24.4Z" style="fill:rgb(42,51,55);fill-rule:nonzero;"/>
        <rect x="50.7" y="34.9" width="11.2" height="10.8" style="fill:rgb(42,51,55);"/>
        <rect x="64.2" y="34.9" width="8.5" height="10.8" style="fill:rgb(42,51,55);"/>
        <path d="M74.9,45.7L75,45.7C77.194,45.7 79,43.894 79,41.7L79,34.9L74.9,34.9L74.9,45.7Z" style="fill:rgb(42,51,55);fill-rule:nonzero;"/>
        <path d="M33.2,8.6L37.5,8.6C37.507,8.6 37.513,8.6 37.52,8.6C40.471,8.6 42.9,11.029 42.9,13.98C42.9,13.987 42.9,13.993 42.9,14L42.9,22.1L48.5,22.1L48.5,16.2C48.478,13.267 50.867,10.833 53.8,10.8L53.8,6.5L36.2,6.5C34.858,6.49 33.65,7.336 33.2,8.6Z" style="fill:rgb(42,51,55);fill-rule:nonzero;"/>
        <path d="M40.6,22.2L40.6,14C40.6,13.987 40.6,13.973 40.6,13.96C40.6,12.226 39.174,10.8 37.44,10.8C37.427,10.8 37.413,10.8 37.4,10.8L33,10.8L33,22.1L40.6,22.1L40.6,22.2Z" style="fill:rgb(42,51,55);fill-rule:nonzero;"/>
    </g>
</svg>
