<svg width="66" height="42" viewBox="0 0 66 42" fill="none" xmlns="http://www.w3.org/2000/svg">
<g clip-path="url(#clip0)">
<path d="M34 34.9H0.999951C0.599951 34.9 0.299951 34.7 0.0999512 34.4C-0.100049 34.1 -0.100049 33.7 0.0999512 33.4L13.5 12.4C13.7 12.1 14 11.9 14.3 11.9H34C34.5999 11.9 35 12.3 35 12.9V33.9C35 34.4 34.5999 34.9 34 34.9ZM2.79995 32.9H33V13.9H15L2.79995 32.9Z" fill="#537CC2"/>
<path d="M34 41.2H1C0.4 41.2 0 40.8 0 40.2V33.8C0 33.2 0.4 32.8 1 32.8H34C34.6 32.8 35 33.2 35 33.8V40.2C35 40.8 34.6 41.2 34 41.2ZM2 39.2H33V34.8H2V39.2Z" fill="#537CC2"/>
<path d="M34 34.9C33.9 34.9 33.7 34.9 33.6 34.8C33.2 34.6 33 34.3 33 33.9V12.9C33 12.6 33.1 12.4 33.3 12.2L44.5 0.3C44.8 -3.27826e-07 45.2 -0.1 45.6 0.0999997L60.1 6.6C60.4 6.7 60.6 7 60.7 7.3C60.8 7.6 60.7 8 60.4 8.2L34.7 34.6C34.5 34.8 34.3 34.9 34 34.9ZM35 13.2V31.4L58.1 7.9L45.5 2.2L35 13.2Z" fill="#537CC2"/>
<path d="M38.7 39.4C38.5 39.4 38.2 39.3 38 39.1L33.3 34.6C32.9 34.2 32.9 33.6 33.3 33.2C33.7 32.8 34.3 32.8 34.7 33.2L38.7 37L63.1 11.9L59.1 8.3C58.7 7.9 58.7 7.3 59 6.9C59.4 6.5 60 6.5 60.4 6.8L65.2 11.1C65.4 11.3 65.5 11.5 65.5 11.8C65.5 12.1 65.4 12.3 65.2 12.5L39.4 39.1C39.2 39.3 39 39.4 38.7 39.4Z" fill="#537CC2"/>
</g>
<defs>
<clipPath id="clip0">
<rect width="65.6" height="41.2" fill="white"/>
</clipPath>
</defs>
</svg>
