<svg width="67" height="47" viewBox="0 0 67 47" fill="none" xmlns="http://www.w3.org/2000/svg">
<g clip-path="url(#clip0)">
<path d="M37.4001 38.4C37.0001 38.4 36.6 38.2 36.5 37.8L30.9 23.4C30.7 22.9 31 22.3 31.5 22.1C32 21.9 32.6 22.2 32.8 22.7L38.3 37C38.5 37.5 38.2 38.1 37.7 38.3C37.6 38.4 37.5001 38.4 37.4001 38.4Z" fill="#537CC2"/>
<path d="M30.1001 19.7C30.0001 19.7 29.8001 19.7 29.7001 19.6C29.6001 19.6 29.5001 19.5 29.4001 19.4C29.2001 19.2 29.1001 19 29.1001 18.7C29.1001 18.4 29.2001 18.2 29.4001 18C29.5001 17.9 29.6001 17.8 29.7001 17.8C30.1001 17.6 30.5001 17.7 30.8001 18C31.0001 18.2 31.1001 18.5 31.1001 18.7C31.1001 19 31.0001 19.2 30.8001 19.4C30.6001 19.6 30.4001 19.7 30.1001 19.7Z" fill="#537CC2"/>
<path d="M28.5002 15.7C28.2002 15.7 28.0002 15.6 27.8002 15.4C27.7002 15.3 27.6002 15.2 27.6002 15.1C27.5002 15 27.5002 14.9 27.5002 14.7C27.5002 14.6 27.5002 14.4 27.6002 14.3C27.6002 14.2 27.7002 14.1 27.8002 14C27.9002 13.9 28.0002 13.8 28.1002 13.8C28.3002 13.7 28.6002 13.7 28.9002 13.8C29.0002 13.9 29.1002 13.9 29.2002 14C29.4002 14.2 29.5002 14.5 29.5002 14.7C29.5002 15 29.4002 15.2 29.2002 15.4C29.1002 15.6 28.8002 15.7 28.5002 15.7Z" fill="#537CC2"/>
<path d="M26.9001 11.4C26.8001 11.4 26.6001 11.4 26.5001 11.3C26.4001 11.2 26.3001 11.2 26.2001 11.1C26.0001 10.9 25.9001 10.7 25.9001 10.4C25.9001 10.3 25.9001 10.3 25.9001 10.2C25.9001 10.1 25.9001 10.1 26.0001 9.99999C26.0001 9.89999 26.0001 9.89999 26.0001 9.79999C26.0001 9.69999 26.1001 9.69999 26.1001 9.69999C26.2001 9.59999 26.3001 9.49999 26.4001 9.49999C26.8001 9.39999 27.2001 9.39999 27.5001 9.69999C27.6001 9.69999 27.6001 9.79999 27.6001 9.79999C27.6001 9.79999 27.7001 9.89999 27.7001 9.99999C27.7001 10.1 27.7001 10.1 27.7001 10.2C27.7001 10.3 27.7001 10.3 27.7001 10.4C27.7001 10.7 27.6001 10.9 27.4001 11.1C27.4001 11.3 27.1001 11.4 26.9001 11.4Z" fill="#537CC2"/>
<path d="M37.4002 38.4C37.3002 38.4 37.1002 38.4 37.0002 38.3L31.2002 35.7C30.7002 35.5 30.5002 34.9 30.7002 34.4C30.9002 33.9 31.5002 33.7 32.0002 33.9L36.9002 36.1L39.1002 31.2C39.3002 30.7 39.9002 30.5 40.4002 30.7C40.9002 30.9 41.1002 31.5 40.9002 32L38.3002 37.8C38.2002 38 38.0002 38.2 37.7002 38.3C37.6002 38.4 37.5002 38.4 37.4002 38.4Z" fill="#537CC2"/>
<path d="M18.5001 25.8C18.1001 25.8 17.7001 25.6 17.6001 25.2L12.0001 10.7C11.8001 10.2 12.1001 9.59999 12.6001 9.39999C13.1001 9.19999 13.7001 9.49999 13.9001 9.99999L19.5001 24.4C19.7001 24.9 19.4001 25.5 18.9001 25.7C18.7001 25.8 18.6001 25.8 18.5001 25.8Z" fill="#537CC2"/>
<path d="M20.2002 30C19.9002 30 19.7002 29.9 19.5002 29.7C19.3002 29.5 19.2002 29.3 19.2002 29C19.2002 28.7 19.3002 28.5 19.5002 28.3C19.6002 28.2 19.7002 28.1 19.8002 28.1C20.2002 27.9 20.6002 28 20.9002 28.3C21.1002 28.5 21.2002 28.7 21.2002 29C21.2002 29.3 21.1002 29.5 20.9002 29.7C20.7002 29.9 20.4002 30 20.2002 30Z" fill="#537CC2"/>
<path d="M21.7002 34.1C21.4002 34.1 21.2002 34 21.0002 33.8C20.9002 33.7 20.8002 33.6 20.8002 33.5C20.7002 33.4 20.7002 33.3 20.7002 33.1C20.7002 33 20.7002 32.8 20.8002 32.7C20.9002 32.6 20.9002 32.5 21.0002 32.4C21.4002 32 22.0002 32 22.4002 32.4C22.5002 32.5 22.6002 32.6 22.6002 32.7C22.7002 32.8 22.7002 32.9 22.7002 33.1C22.7002 33.2 22.7002 33.4 22.6002 33.5C22.6002 33.6 22.5002 33.7 22.4002 33.8C22.2002 34 22.0002 34.1 21.7002 34.1Z" fill="#537CC2"/>
<path d="M23.4001 38.4C23.1001 38.4 22.9001 38.3 22.7001 38.1C22.5001 37.9 22.4001 37.6 22.4001 37.4C22.4001 37.1 22.5001 36.9 22.7001 36.7C22.8001 36.6 22.9001 36.5 23.0001 36.5C23.4001 36.3 23.8001 36.4 24.1001 36.7C24.3001 36.9 24.4001 37.1 24.4001 37.4C24.4001 37.7 24.3001 37.9 24.1001 38.1C23.9001 38.3 23.7001 38.4 23.4001 38.4Z" fill="#537CC2"/>
<path d="M10.3001 17.2C10.2001 17.2 10.0001 17.2 9.90013 17.1C9.40013 16.9 9.20013 16.3 9.40013 15.8L12.0001 9.99999C12.1001 9.79999 12.3001 9.59999 12.6001 9.49999C12.8001 9.39999 13.1001 9.39999 13.4001 9.49999L19.2001 12.1C19.7001 12.3 19.9001 12.9 19.7001 13.4C19.5001 13.9 18.9001 14.1 18.4001 13.9L13.5001 11.7L11.3001 16.6C11.1001 17 10.7001 17.2 10.3001 17.2Z" fill="#537CC2"/>
<path d="M48.7001 25.8C48.3001 25.8 47.9001 25.6 47.8001 25.2L42.2001 10.8C42.0001 10.3 42.3001 9.69996 42.8001 9.49996C43.3001 9.29996 43.9001 9.59996 44.1001 10.1L49.7001 24.5C49.9001 25 49.6001 25.6 49.1001 25.8C49.0001 25.8 48.9001 25.8 48.7001 25.8Z" fill="#537CC2"/>
<path d="M50.4001 30C50.1001 30 49.9001 29.9 49.7001 29.7C49.5001 29.5 49.4001 29.3 49.4001 29C49.4001 28.7 49.5001 28.5 49.7001 28.3C50.1001 27.9 50.7001 27.9 51.1001 28.3C51.3001 28.5 51.4001 28.7 51.4001 29C51.4001 29.3 51.3001 29.5 51.1001 29.7C51.0001 29.8 50.9001 29.9 50.8001 29.9C50.7001 29.9 50.5001 30 50.4001 30Z" fill="#537CC2"/>
<path d="M52.0002 34.1C51.7002 34.1 51.5002 34 51.3002 33.8C51.2002 33.7 51.1002 33.6 51.1002 33.5C51.0002 33.4 51.0002 33.2 51.0002 33.1C51.0002 33 51.0002 32.8 51.1002 32.7C51.1002 32.6 51.2002 32.5 51.3002 32.4C51.7002 32 52.3002 32 52.7002 32.4C52.8002 32.5 52.9002 32.6 52.9002 32.7C53.0002 32.8 53.0002 32.9 53.0002 33.1C53.0002 33.2 53.0002 33.4 52.9002 33.5C52.9002 33.6 52.8002 33.7 52.7002 33.8C52.5002 34 52.2002 34.1 52.0002 34.1Z" fill="#537CC2"/>
<path d="M53.6001 38.4C53.3001 38.4 53.1001 38.3 52.9001 38.1C52.7001 37.9 52.6001 37.7 52.6001 37.4C52.6001 37.1 52.7001 36.9 52.9001 36.7C53.3001 36.3 53.9001 36.3 54.3001 36.7C54.5001 36.9 54.6001 37.1 54.6001 37.4C54.6001 37.7 54.5001 37.9 54.3001 38.1C54.2001 38.3 53.9001 38.4 53.6001 38.4Z" fill="#537CC2"/>
<path d="M40.6002 17.2C40.5002 17.2 40.3002 17.2 40.2002 17.1C39.7002 16.9 39.5002 16.3 39.7002 15.8L42.3002 9.99999C42.4002 9.79999 42.6002 9.59999 42.9002 9.49999C43.1002 9.39999 43.4002 9.39999 43.7002 9.49999L49.5002 12.1C50.0002 12.3 50.2002 12.9 50.0002 13.4C49.8002 13.9 49.2002 14.1 48.7002 13.9L43.8002 11.7L41.6002 16.6C41.3002 17 41.0002 17.2 40.6002 17.2Z" fill="#537CC2"/>
<path d="M33.2001 46.3C26.2001 46.3 19.3001 45.5 12.3001 43.9C11.7001 43.8 11.1001 43.7 10.5001 43.8L4.3001 44.8C3.5001 44.9 2.8001 44.7 2.2001 44.1C1.7001 43.5 1.4001 42.8 1.6001 42L2.5001 37.1C2.6001 36.5 2.6001 35.8 2.3001 35.2C-0.799902 27.2 -0.799902 19 2.5001 11C2.7001 10.4 2.8001 9.69999 2.7001 9.09999L1.7001 4.19999C1.6001 3.39999 1.8001 2.59999 2.4001 2.09999C2.9001 1.49999 3.7001 1.29999 4.5001 1.39999L11.6001 2.59999C26.0001 -0.800012 40.7001 -0.800012 55.1001 2.59999L62.2001 1.39999C63.0001 1.29999 63.7001 1.49999 64.3001 2.09999C64.8001 2.69999 65.1001 3.39999 64.9001 4.19999L64.0001 9.09999C63.9001 9.69999 63.9001 10.4 64.2001 11C67.5001 19.1 67.5001 27.3 64.2001 35.3C64.0001 35.9 63.9001 36.6 64.0001 37.2L64.9001 42.1C65.0001 42.9 64.8001 43.6 64.3001 44.2C63.8001 44.8 63.0001 45 62.2001 44.9L56.0001 43.9C55.4001 43.8 54.8001 43.8 54.2001 44C47.2001 45.5 40.2001 46.3 33.2001 46.3ZM11.3001 41.8C11.8001 41.8 12.3001 41.9 12.8001 42C26.3001 45.1 40.1001 45.1 53.6001 42C54.5001 41.8 55.3001 41.8 56.2001 41.9L62.4001 42.9C62.6001 42.9 62.7001 42.8 62.7001 42.8C62.8001 42.7 62.8001 42.6 62.8001 42.5L61.9001 37.6C61.7001 36.6 61.8001 35.5 62.2001 34.6C65.3001 27 65.3001 19.3 62.2001 11.8C61.8001 10.8 61.7001 9.79999 61.9001 8.79999L62.8001 3.89999C62.8001 3.69999 62.8001 3.59999 62.7001 3.59999C62.6001 3.59999 62.5001 3.49999 62.4001 3.49999L55.2001 4.69999C55.0001 4.69999 54.9001 4.69999 54.7001 4.69999C40.4001 1.29999 26.0001 1.29999 11.7001 4.69999C11.5001 4.69999 11.4001 4.69999 11.2001 4.69999L4.1001 3.39999C3.9001 3.39999 3.8001 3.49999 3.8001 3.49999C3.8001 3.49999 3.7001 3.69999 3.7001 3.79999L4.6001 8.69999C4.8001 9.69999 4.7001 10.8 4.3001 11.7C1.2001 19.3 1.2001 27 4.3001 34.5C4.7001 35.5 4.8001 36.5 4.6001 37.5L3.7001 42.4C3.7001 42.6 3.7001 42.7 3.8001 42.7C3.9001 42.8 4.0001 42.8 4.1001 42.8L10.3001 41.8C10.6001 41.8 11.0001 41.8 11.3001 41.8Z" fill="#537CC2"/>
</g>
<defs>
<clipPath id="clip0">
<rect width="66.5" height="46.3" fill="white"/>
</clipPath>
</defs>
</svg>
