<?xml version="1.0" encoding="UTF-8"?>
<svg width="74px" height="43px" viewBox="0 0 74 43" version="1.1" xmlns="http://www.w3.org/2000/svg" xmlns:xlink="http://www.w3.org/1999/xlink">
    <g id="Hyperdown" stroke="none" stroke-width="1" fill="none" fill-rule="evenodd">
        <g id="Mobile-menu" transform="translate(-46.000000, -269.000000)" fill-rule="nonzero" fill="#AEB4B7">
            <g id="hyperdown-menu-icon" transform="translate(46.000000, 269.000000)">
                <path d="M66.7632025,13.910761 C68.336856,13.3840766 69.0204663,13.5924605 69.3300636,13.0565774 C69.6396609,12.5206944 67.4180063,11.0311553 65.8071738,9.44662621 C65.6349369,9.2571392 65.0286934,8.63272731 64.8716315,8.56334821 C62.9375703,6.79530019 60.4344445,5.07798097 57.6945877,3.94628103 C51.5099928,0.491500275 45.3200866,-1.52646171 38.7014849,1.42849113 C37.4123637,2.00366624 35.7742162,2.77802651 34.7453473,3.76649218 C35.3864935,3.1495404 29.9963128,2.26850044 29.3020539,2.1842011 C27.710949,1.98799999 26.1061866,2.1842011 24.5461907,2.51095428 C22.4232,2.95333929 20.4709288,4.19917904 18.9329366,5.75088363 C18.6673731,6.01870188 18.4306422,6.31337655 18.2022576,6.61401931 C18.0876859,6.57821074 17.8911689,6.52076783 17.5831152,6.40364398 C17.0497119,6.19998275 16.4366396,6.10449324 15.8721274,6.04406628 C11.3583064,5.55169848 3.79353985,6.48346724 1.36173678,11.2310865 C0.535454864,12.5783838 0.00432782807,18.9664831 0.00432782807,18.9664831 C-0.0207110179,19.2708559 0.063510555,19.5759747 0.241058736,19.8229047 C0.241058736,19.8229047 16.0967183,38.4000911 18.4382297,40.6269364 C18.6081904,40.7806148 18.6742019,40.8343277 18.7053108,40.8477559 C20.255443,42.0167564 22.3655348,42.8798921 24.5226693,43 L72.8446071,28.2901389 C75.7688408,27.226326 72.2740249,18.2450897 71.8248432,17.3043687 C71.2117708,16.0286885 68.5083342,14.6612489 66.7632025,13.910761 Z M40.0717927,2.98094173 C45.2434525,1.12710235 50.7315123,2.70640938 55.4289516,5.12572572 C55.4448854,5.1495981 55.4585429,5.1809306 55.4752355,5.20107292 C55.5936009,5.23986553 55.7195539,5.29283237 55.8409544,5.33983112 C56.0913428,5.47411325 56.3386963,5.60690335 56.5845322,5.7426775 C56.7135202,5.81429464 56.8379557,5.85084922 56.9623912,5.86651546 C59.972364,7.48312309 63.887529,10.9334278 65.1812027,12.0770639 L51.9121318,16.438995 C47.0318331,9.12807916 39.3441486,6.20147477 36.4495063,5.32341886 C37.3903599,4.69229285 38.145319,3.67025666 40.0717927,2.98094173 Z M22.1773641,5.79116827 C24.0006473,4.57218495 26.1759919,4.27005016 28.2936713,4.26035201 C29.6912941,4.2536379 31.0691894,4.5818831 32.4212871,4.91087432 C33.2005263,5.09961531 34.2605042,5.79415232 35.1398988,5.80758053 C35.2362604,5.86353142 45.1956511,8.06948838 51.0995075,16.7045752 L35.8645078,21.7118066 C30.824871,13.0580694 22.214543,9.48989489 19.4337136,8.53052369 C20.3722909,7.69349842 21.0726198,6.531212 22.1773641,5.79116827 Z M17.9586979,8.88189526 C18.0793396,8.94605227 18.2143976,8.98484489 18.3517319,9.00647923 L18.3365569,9.06914422 C18.446576,9.09823869 29.1783772,12.0531915 35.0617472,21.9758948 L21.0650323,26.5780417 C19.4564762,20.1399597 5.61909935,12.6358268 5.65172573,12.6268746 C5.35201833,12.4806563 3.9232866,11.5638078 3.58640031,11.4623502 C6.25493429,7.81584436 14.6657103,7.13175152 17.9586979,8.88189526 Z M17.6202941,36.1583256 C17.6202941,36.1583256 2.18270743,19.7139869 1.87617125,18.4375607 C1.64475162,17.4744594 2.28438032,13.7600666 2.28438032,13.7600666 C7.51067036,16.2547301 17.6427696,22.2530011 18.8159977,27.7075718 C18.8964096,28.0814226 19.0064269,29.298493 19.3889471,29.6359442 C19.7714674,29.9733954 21.3537387,29.3522058 21.4994193,29.298493 C22.6360928,28.926919 51.0646048,19.1738744 63.82,14.8969886 C65.7462359,14.8969886 67.7900358,15.2774546 68.198763,16.8575077 C68.6074902,18.4375607 29.4970534,28.3923425 21.0544098,31.7292534 C19.9147629,32.1776065 17.8911689,34.2440592 17.6202941,36.1583256 Z M72.040329,25.0494635 C72.2937525,25.773095 71.4227041,26.6727852 70.090334,27.0569813 L26.0894941,40.2606446 C25.0818702,40.7656946 21.3837085,40.9081828 20.6120568,38.8506822 C19.9845682,37.1714096 20.1863964,34.9072637 22.5848144,33.6420277 C25.1160141,32.3066665 67.7860014,19.0776389 67.7860014,19.0776389 C69.1373404,18.6852366 70.2033882,19.0187039 70.4150803,19.6214815 L70.5797296,20.0899769 C70.6920251,20.410762 70.5486208,21.1418536 70.1244779,21.485765 L53.0950276,26.8018453 L25.1774731,35.303396 C23.842068,35.6913222 22.9050081,36.4089855 23.0817975,36.9125435 L23.2198906,37.3041997 C23.3974388,37.8055197 24.1364641,37.9905306 25.4718692,37.6078265 L70.6070447,23.9632703 C70.7550016,23.9192556 70.8976471,23.8722568 71.0364989,23.8230201 C71.4378792,23.9520801 71.7330341,24.1781217 71.8415357,24.4854786 L72.040329,25.0494635 Z" id="Shape"></path>
            </g>
        </g>
    </g>
</svg>