<?xml version="1.0" encoding="UTF-8" standalone="no"?>
<!DOCTYPE svg PUBLIC "-//W3C//DTD SVG 1.1//EN" "http://www.w3.org/Graphics/SVG/1.1/DTD/svg11.dtd">
<svg width="100%" height="100%" viewBox="0 0 1164 1170" version="1.1" xmlns="http://www.w3.org/2000/svg" xmlns:xlink="http://www.w3.org/1999/xlink" xml:space="preserve" style="fill-rule:evenodd;clip-rule:evenodd;stroke-linejoin:round;stroke-miterlimit:1.41421;">
    <g transform="matrix(1,0,0,1,-428.496,-216.768)">
        <path d="M1218.4,840.394C1218.4,951.168 1128.32,1041.27 1017.57,1041.27C906.797,1041.27 816.716,951.168 816.716,840.394C816.716,729.665 906.82,639.561 1017.57,639.561C1128.3,639.56 1218.4,729.687 1218.4,840.394Z" style="fill-rule:nonzero;"/>
    </g>
    <g transform="matrix(1,0,0,1,-428.496,-216.768)">
        <path d="M1367.33,1386.13L653.184,1386.13C529.296,1386.13 428.512,1285.31 428.512,1161.46L428.512,696.416L710.832,696.416C690.224,740.16 678.624,788.944 678.624,840.4C678.624,1027.33 830.672,1179.36 1017.58,1179.36C1204.48,1179.36 1356.53,1027.33 1356.53,840.4C1356.53,788.944 1344.93,740.16 1324.32,696.416L1592,696.416L1592,1161.44C1592,1285.31 1491.22,1386.13 1367.33,1386.13Z" style="fill-rule:nonzero;"/>
    </g>
    <g transform="matrix(1,0,0,1,-428.496,-216.768)">
        <path d="M1367.33,216.768L653.184,216.768C529.296,216.768 428.496,317.552 428.496,441.44L428.496,564.255L821.392,564.255C876.817,524.783 944.481,501.471 1017.55,501.471C1090.62,501.471 1158.27,524.783 1213.7,564.255L1592,564.255L1592,441.44C1592,317.552 1491.22,216.768 1367.33,216.768ZM1464.53,444.576C1464.53,461.218 1450.91,474.831 1434.27,474.831L1340.78,474.831C1324.14,474.831 1310.53,461.218 1310.53,444.576L1310.53,351.089C1310.53,334.447 1324.13,320.834 1340.78,320.834L1434.27,320.834C1450.9,320.834 1464.53,334.448 1464.53,351.089L1464.53,444.576Z" style="fill-rule:nonzero;"/>
    </g>
</svg>
