<?xml version="1.0" encoding="UTF-8" standalone="no"?>
<!DOCTYPE svg PUBLIC "-//W3C//DTD SVG 1.1//EN" "http://www.w3.org/Graphics/SVG/1.1/DTD/svg11.dtd">
<svg width="100%" height="100%" viewBox="0 0 86 59" version="1.1" xmlns="http://www.w3.org/2000/svg" xmlns:xlink="http://www.w3.org/1999/xlink" xml:space="preserve" style="fill-rule:evenodd;clip-rule:evenodd;stroke-linecap:round;stroke-linejoin:round;">
    <g transform="matrix(1,0,0,1,0,-0.02)">
        <path d="M2.5,48.16C2.5,52.549 6.111,56.16 10.5,56.16L74.79,56.16C79.179,56.16 82.79,52.549 82.79,48.16L82.79,10.52C82.79,6.131 79.179,2.52 74.79,2.52L10.52,2.52C6.131,2.52 2.52,6.131 2.52,10.52L2.52,34.84" style="fill:none;stroke:rgb(51,58,76);stroke-width:5px;"/>
    </g>
    <g transform="matrix(1,0,0,1,0,-0.02)">
        <path d="M16.06,17.57L18.06,17.57" style="fill:none;stroke:rgb(51,58,76);stroke-width:5px;"/>
    </g>
    <g transform="matrix(1,0,0,1,0,-0.02)">
        <path d="M28.06,17.57L31.06,17.57" style="fill:none;stroke:rgb(51,58,76);stroke-width:5px;"/>
    </g>
    <g transform="matrix(1,0,0,1,0,-0.02)">
        <path d="M41.06,17.57L44.06,17.57" style="fill:none;stroke:rgb(51,58,76);stroke-width:5px;"/>
    </g>
    <g transform="matrix(1,0,0,1,0,-0.02)">
        <path d="M54.06,17.57L56.06,17.57" style="fill:none;stroke:rgb(51,58,76);stroke-width:5px;"/>
    </g>
    <g transform="matrix(1,0,0,1,0,-0.02)">
        <path d="M67.06,17.57L69.06,17.57" style="fill:none;stroke:rgb(51,58,76);stroke-width:5px;"/>
    </g>
    <g transform="matrix(1,0,0,1,0,-0.02)">
        <path d="M16.06,30.57L18.06,30.57" style="fill:none;stroke:rgb(51,58,76);stroke-width:5px;"/>
    </g>
    <g transform="matrix(1,0,0,1,0,-0.02)">
        <path d="M28.06,30.57L31.06,30.57" style="fill:none;stroke:rgb(51,58,76);stroke-width:5px;"/>
    </g>
    <g transform="matrix(1,0,0,1,0,-0.02)">
        <path d="M41.06,30.57L44.06,30.57" style="fill:none;stroke:rgb(51,58,76);stroke-width:5px;"/>
    </g>
    <g transform="matrix(1,0,0,1,0,-0.02)">
        <path d="M54.06,30.57L56.06,30.57" style="fill:none;stroke:rgb(51,58,76);stroke-width:5px;"/>
    </g>
    <g transform="matrix(1,0,0,1,0,-0.02)">
        <path d="M67.06,30.57L69.06,30.57" style="fill:none;stroke:rgb(51,58,76);stroke-width:5px;"/>
    </g>
    <g transform="matrix(1,0,0,1,0,-0.02)">
        <path d="M16.06,43.57L18.06,43.57" style="fill:none;stroke:rgb(51,58,76);stroke-width:5px;"/>
    </g>
    <g transform="matrix(1,0,0,1,0,-0.02)">
        <path d="M28.06,43.57L57.06,43.57" style="fill:none;stroke:rgb(51,58,76);stroke-width:5px;"/>
    </g>
    <g transform="matrix(1,0,0,1,0,-0.02)">
        <path d="M67.06,43.57L69.06,43.57" style="fill:none;stroke:rgb(51,58,76);stroke-width:5px;"/>
    </g>
</svg>
