<svg width="39" height="54" viewBox="0 0 39 54" fill="none" xmlns="http://www.w3.org/2000/svg">
<g clip-path="url(#clip0)">
<path d="M1 53.6C0.4 53.6 0 53.1 0 52.5C0 52.2 2.1 25.7 27.4 7.70001C27.9 7.40001 28.5 7.50001 28.8 7.90001C29.1 8.40001 29 9.00001 28.6 9.40001C4.1 26.8 2 52.4 2 52.6C2 53.2 1.5 53.6 1 53.6Z" fill="#537CC2"/>
<path d="M8.89998 41.8C7.39998 41.8 5.59998 41.6 3.69998 41.1C3.49998 41 3.19998 40.9 3.09998 40.7C2.99998 40.6 -3.60002 31 3.09998 21.3C3.29998 21 3.69998 20.8 3.99998 20.9C4.29998 20.9 4.49998 21.1 4.69998 21.3L4.89998 17.1C4.89998 17 4.89998 16.8 4.99998 16.7C5.09998 16.5 7.29998 12.1 12.5 7.89998C17.2 3.99998 25.5 -0.600019 38 0.099981C38.3 0.099981 38.5 0.199981 38.7 0.499981C38.9 0.799981 39 0.999981 38.9 1.29998C38.8 1.79998 37.4 13.6 30.1 21.4C30 21.5 29.9 21.6 29.8 21.6C29.7 21.6 28.8 22.1 27.4 22.6C27.6 22.7 27.7 22.8 27.8 22.9C28 23.2 28.1 23.5 28 23.8C27.9 24.2 25 33 18.7 36.4C18.4 36.6 17.5 37.1 15.8 37.2C15.9 37.4 16 37.7 15.9 37.9C15.9 38.1 15.6 39.5 13.9 40.6C12.7 41.4 11 41.8 8.89998 41.8ZM4.49998 39.3C9.29998 40.3 11.7 39.7 12.8 38.9C13 38.8 13.1 38.7 13.3 38.5C10.6 37.9 9.79998 36.1 9.79998 36C9.69998 35.7 9.69998 35.3 9.99998 35C10.2 34.7 10.6 34.6 11 34.7C15.7 35.9 17.6 34.7 17.6 34.7L17.7 34.6C22 32.4 24.6 27 25.6 24.5C23.3 24.4 20.9 24 20.7 23.9C20.2 23.8 19.8 23.3 19.9 22.8C19.9 22.3 20.4 21.9 20.9 21.9C24.2 21.9 28 20.2 28.8 19.8C34.4 13.8 36.3 4.99998 36.8 1.99998C16.2 1.49998 7.79998 15.7 6.89998 17.4L6.49998 25.5C6.49998 26 6.09998 26.3 5.69998 26.4C5.19998 26.5 4.79998 26.3 4.59998 25.8L3.79998 24C-2.16961e-05 31.2 3.59998 37.8 4.49998 39.3Z" fill="#537CC2"/>
</g>
<defs>
<clipPath id="clip0">
<rect width="38.9" height="53.6" fill="white"/>
</clipPath>
</defs>
</svg>
