<svg width="90" height="43" viewBox="0 0 90 43" fill="none" xmlns="http://www.w3.org/2000/svg">
<g clip-path="url(#clip0)">
<path d="M77.8999 36.5C77.6999 36.5 77.5999 36.5 77.3999 36.4L49.8999 20.5C49.6999 20.4 49.4999 20.1 49.3999 19.9C49.2999 19.7 49.3999 19.4 49.4999 19.1L60.2999 0.499993C60.5999 -7.48038e-06 61.1999 -0.100007 61.6999 0.0999925L89.1999 16C89.3999 16.1 89.5999 16.4 89.6999 16.6C89.7999 16.8 89.6999 17.1 89.5999 17.4L78.7999 36C78.5999 36.3 78.2999 36.5 77.8999 36.5ZM51.6999 19.3L77.4999 34.2L87.2999 17.3L61.4999 2.39999L51.6999 19.3Z" fill="#537CC2"/>
<path d="M74.7414 21.3012C76.3982 18.4315 75.415 14.762 72.5454 13.1052C69.6757 11.4483 66.0062 12.4315 64.3494 15.3012C62.6925 18.1709 63.6757 21.8403 66.5454 23.4972C69.415 25.154 73.0845 24.1709 74.7414 21.3012Z" fill="#537CC2"/>
<path d="M37.6 42.8C37.4 42.8 37.3 42.8 37.1 42.7C36.6 42.4 36.5 41.8 36.7 41.3L60.3 0.499993C60.6 -7.48038e-06 61.2 -0.100007 61.7 0.0999925C62.1 0.399993 62.3 0.999992 62 1.49999L38.4 42.3C38.2 42.6 37.9 42.8 37.6 42.8Z" fill="#537CC2"/>
<path d="M11.8 36.5C11.5 36.5 11.1 36.3 10.9 36L0.1 17.4C0 17.2 0 16.9 0 16.6C0.1 16.3 0.2 16.1 0.5 16L28 0.0999994C28.5 -0.200001 29.1 -5.96046e-07 29.4 0.499999L40.2 19.1C40.3 19.3 40.4 19.6 40.3 19.9C40.2 20.2 40.1 20.4 39.8 20.5L12.3 36.4C12.1 36.5 11.9 36.5 11.8 36.5ZM2.4 17.3L12.2 34.2L38 19.3L28.2 2.4L2.4 17.3Z" fill="#537CC2"/>
<path d="M23.1247 23.5095C25.9944 21.8526 26.9776 18.1832 25.3207 15.3135C23.6639 12.4438 19.9944 11.4606 17.1247 13.1175C14.255 14.7743 13.2719 18.4438 14.9287 21.3135C16.5856 24.1832 20.255 25.1663 23.1247 23.5095Z" fill="#537CC2"/>
<path d="M52.1 42.8C51.8 42.8 51.4 42.6 51.2 42.3L27.7 1.5C27.4 0.999999 27.5 0.399999 28 0.0999994C28.5 -0.200001 29.1 -5.96046e-07 29.4 0.499999L53 41.3C53.3 41.8 53.1 42.4 52.6 42.7C52.4 42.8 52.3 42.8 52.1 42.8Z" fill="#537CC2"/>
</g>
<defs>
<clipPath id="clip0">
<rect width="89.7" height="42.8" fill="white"/>
</clipPath>
</defs>
</svg>
