<?xml version="1.0" encoding="UTF-8" standalone="no"?>
<svg width="54px" height="59px" viewBox="0 0 54 59" version="1.1" xmlns="http://www.w3.org/2000/svg" xmlns:xlink="http://www.w3.org/1999/xlink">
    <!-- Generator: sketchtool 41.2 (35397) - http://www.bohemiancoding.com/sketch -->
    <title>11797FD2-3D69-4EA6-BDEF-C545CC8B106F</title>
    <desc>Created with sketchtool.</desc>
    <defs></defs>
    <g id="dev-styles" stroke="none" stroke-width="1" fill="none" fill-rule="evenodd">
        <g id="Collections-v1-desktop" transform="translate(-673.000000, -2390.000000)" fill="#FFFFFF">
            <g id="moon-icon" transform="translate(700.000000, 2419.500000) scale(-1, 1) translate(-700.000000, -2419.500000) translate(673.000000, 2390.000000)">
                <g id="Group" transform="translate(3.241758, 0.000000)">
                    <path d="M15.9176813,21.2309231 C15.9176813,17.3278462 12.7433516,14.1528681 8.84027473,14.1528681 C8.60751648,14.1528681 8.41884615,13.9641978 8.41884615,13.7314396 C8.41884615,13.4986813 8.60751648,13.310011 8.84027473,13.310011 C12.7433516,13.310011 15.9176813,10.135033 15.9176813,6.2326044 C15.9176813,5.99984615 16.1063516,5.81117582 16.3391099,5.81117582 C16.5718681,5.81117582 16.7605385,5.99984615 16.7605385,6.2326044 C16.7605385,10.135033 19.9348681,13.310011 23.8392418,13.310011 C24.0707033,13.310011 24.2593736,13.4986813 24.2593736,13.7314396 C24.2593736,13.9641978 24.0707033,14.1528681 23.8392418,14.1528681 C19.9355165,14.1528681 16.7605385,17.3278462 16.7605385,21.2309231 C16.7605385,21.4636813 16.5718681,21.6523516 16.3391099,21.6523516 C16.1063516,21.6523516 15.9176813,21.463033 15.9176813,21.2309231 Z" id="Shape"></path>
                    <path d="M5.54146154,31.174044 C5.54146154,30.0109011 4.59486813,29.0643077 3.43107692,29.0643077 C3.19896703,29.0643077 3.0102967,28.8756374 3.0102967,28.6428791 C3.0102967,28.4101209 3.19896703,28.2214505 3.43107692,28.2214505 C4.59486813,28.2214505 5.54146154,27.2748571 5.54146154,26.1117143 C5.54146154,25.878956 5.73013187,25.6902857 5.96289011,25.6902857 C6.19564835,25.6902857 6.38431868,25.878956 6.38431868,26.1117143 C6.38431868,27.2748571 7.33026374,28.2214505 8.49405495,28.2214505 C8.72681319,28.2214505 8.91548352,28.4101209 8.91548352,28.6428791 C8.91548352,28.8756374 8.72681319,29.0643077 8.49405495,29.0643077 C7.33026374,29.0643077 6.38431868,30.0109011 6.38431868,31.174044 C6.38431868,31.4068022 6.19564835,31.5954725 5.96289011,31.5954725 C5.73013187,31.5954725 5.54146154,31.4068022 5.54146154,31.174044 Z" id="Shape"></path>
                    <path d="M4.24216484,8.61789011 C4.24216484,6.65338462 2.64397802,5.05454945 0.679472527,5.05454945 C0.447362637,5.05454945 0.258692308,4.86587912 0.258692308,4.63312088 C0.258692308,4.40036264 0.447362637,4.21169231 0.679472527,4.21169231 C2.64397802,4.21169231 4.24216484,2.61285714 4.24216484,0.648351648 C4.24216484,0.415593407 4.43083516,0.226923077 4.66359341,0.226923077 C4.89635165,0.226923077 5.08502198,0.415593407 5.08502198,0.648351648 C5.08502198,2.61285714 6.68320879,4.21169231 8.64771429,4.21169231 C8.88047253,4.21169231 9.06914286,4.40036264 9.06914286,4.63312088 C9.06914286,4.86587912 8.88047253,5.05454945 8.64771429,5.05454945 C6.68320879,5.05454945 5.08502198,6.65338462 5.08502198,8.61789011 C5.08502198,8.85064835 4.89635165,9.03931868 4.66359341,9.03931868 C4.43083516,9.03931868 4.24216484,8.85064835 4.24216484,8.61789011 Z" id="Shape"></path>
                </g>
                <path d="M43.9349011,23.4074396 C43.9349011,37.3774725 32.5686484,48.7443736 18.5986154,48.7443736 C11.492033,48.7443736 4.85031868,45.8280879 0.0635384615,40.6743407 C4.11314286,51.317033 14.4906593,58.5798681 26.0125165,58.5798681 C41.3181538,58.5798681 53.7703956,46.126978 53.7703956,30.821989 C53.7703956,19.2994835 46.5069121,8.92131868 35.8635714,4.87171429 C41.0186154,9.65914286 43.9349011,16.3008571 43.9349011,23.4074396 Z" id="Path"></path>
            </g>
        </g>
    </g>
</svg>