<svg width="75" height="38" viewBox="0 0 75 38" fill="none" xmlns="http://www.w3.org/2000/svg">
<g clip-path="url(#clip0)">
<path d="M34.9 26.2H30C22.8 26.2 16.9 20.3 16.9 13.1C17 5.9 22.8 0 30.1 0H47.7C48.3 0 48.7 0.4 48.7 1V16.4C48.7 17 48.3 17.4 47.7 17.4C47.1 17.4 46.7 17 46.7 16.4V2H30.1C23.9 2 19 7 19 13.1C19 19.2 24 24.2 30.1 24.2H35C38.4 24.2 41.6 22.7 43.8 20.2C44.2 19.8 44.8 19.7 45.2 20.1C45.6 20.5 45.7 21.1 45.3 21.5C42.7 24.5 38.9 26.2 34.9 26.2Z" fill="#537CC2"/>
<path d="M55.2 14.3C54.1 14.3 52.8 14.1 51.1 13.5L47.3 12.1C46.8 11.9 46.5 11.3 46.7 10.8C46.9 10.3 47.5 9.99998 48 10.2L51.8 11.6C55.6 12.8 56.9 12.1 59.2 11C59.5 10.9 59.8 10.7 60.1 10.6L64.4 8.49998C66.3 7.59998 68.3 7.09998 70.4 7.09998H73.2C73.8 7.09998 74.2 7.49998 74.2 8.09998C74.2 8.69998 73.8 9.09998 73.2 9.09998H70.4C68.6 9.09998 66.9 9.49998 65.3 10.3L61 12.4C60.7 12.5 60.4 12.7 60.1 12.8C58.5 13.7 57.2 14.3 55.2 14.3Z" fill="#537CC2"/>
<path d="M73.1001 36H66.7001C63.0001 36 59.3001 34.7 56.4001 32.3L52.7001 29.3C52.0001 28.7 51.3001 28.2 50.5001 27.8L42.4001 23.4C41.9001 23.1 41.7001 22.5 42.0001 22C42.3001 21.5 42.9001 21.3 43.4001 21.6L51.5001 26C52.4001 26.5 53.3001 27.1 54.0001 27.7L57.7001 30.7C60.3001 32.8 63.5001 33.9 66.8001 33.9H73.2001C73.8001 33.9 74.2001 34.3 74.2001 34.9C74.2001 35.5 73.6001 36 73.1001 36Z" fill="#537CC2"/>
<path d="M59.8001 29.4C59.6001 29.4 59.4001 29.3 59.2001 29.2C58.8001 28.9 58.7001 28.3 59.0001 27.8C59.3001 27.4 59.9001 27.3 60.4001 27.6C60.4001 27.6 60.5001 27.6 60.5001 27.7C60.9001 28 61.0001 28.7 60.7001 29.1C60.4001 29.3 60.1001 29.4 59.8001 29.4ZM56.6001 26.9C56.4001 26.9 56.2001 26.8 56.0001 26.7C55.6001 26.4 55.5001 25.7 55.8001 25.3C56.1001 24.9 56.8001 24.8 57.2001 25.1C57.6001 25.4 57.7001 26.1 57.4001 26.5C57.3001 26.8 57.0001 26.9 56.6001 26.9ZM53.5001 24.5C53.4001 24.5 53.3001 24.5 53.1001 24.4C53.0001 24.4 53.0001 24.3 52.9001 24.3C52.4001 24 52.3001 23.4 52.6001 22.9C52.9001 22.5 53.5001 22.3 53.9001 22.6C54.3001 22.8 54.5001 23.4 54.3001 23.8C54.2001 24.2 53.9001 24.5 53.5001 24.5ZM49.9001 22.6C49.7001 22.6 49.6001 22.6 49.4001 22.5C48.9001 22.2 48.7001 21.6 49.0001 21.1C49.3001 20.6 49.9001 20.4 50.4001 20.7C50.9001 21 51.1001 21.6 50.8001 22.1C50.6001 22.4 50.3001 22.6 49.9001 22.6Z" fill="#537CC2"/>
<path d="M73.1 18.6C73 18.6 72.9 18.6 72.8 18.6C72 18.4 71.1 18.2 70.2 18.1L63.1 18C62.5 18 62.1 17.5 62.1 17C62.1 16.4 62.6 16 63.1 16L70.3 16.1C71.4 16.2 72.4 16.4 73.3 16.7C73.8 16.9 74.1 17.4 74 17.9C73.9 18.3 73.5 18.6 73.1 18.6Z" fill="#537CC2"/>
<path d="M38.1 37.3H19.7C12.8 37.3 7.8 34.5 4.9 32.1C2.2 29.9 0 27 0 26.3C0 26.1 0 25.9 0.1 25.8C0.3 25.5 4.5 18.5 13.6 16.1C14.1 16 14.7 16.3 14.8 16.8C14.9 17.3 14.6 17.9 14.1 18C7.2 19.8 3.3 24.7 2.2 26.3C3.6 28.3 9.2 35.3 19.7 35.3H38.1C42.8 35.3 47 33.9 50.7 31.2C51.1 30.9 51.8 31 52.1 31.4C52.4 31.8 52.3 32.5 51.9 32.8C47.8 35.8 43.2 37.3 38.1 37.3Z" fill="#537CC2"/>
</g>
<defs>
<clipPath id="clip0">
<rect width="74.1" height="37.3" fill="white"/>
</clipPath>
</defs>
</svg>
