<?xml version="1.0" encoding="UTF-8" standalone="no"?>
<!DOCTYPE svg PUBLIC "-//W3C//DTD SVG 1.1//EN" "http://www.w3.org/Graphics/SVG/1.1/DTD/svg11.dtd">
<svg width="100%" height="100%" viewBox="0 0 70 77" version="1.1" xmlns="http://www.w3.org/2000/svg" xmlns:xlink="http://www.w3.org/1999/xlink" xml:space="preserve" style="fill-rule:evenodd;clip-rule:evenodd;stroke-linecap:round;stroke-linejoin:round;">
    <g transform="matrix(1,0,0,1,0,-0.0108314)">
        <path d="M3,73.47L67,73.47" style="fill:none;stroke:rgb(51,58,76);stroke-width:6px;"/>
        <path d="M47.38,5C46.124,3.686 44.384,2.942 42.566,2.942C40.802,2.942 39.108,3.643 37.86,4.89L23,19.75" style="fill:none;stroke:rgb(51,58,76);stroke-width:5px;"/>
        <path d="M58.01,15.71L18.14,55.58L2.82,61.68L8.92,46.36L48.8,6.49L58.01,15.71Z" style="fill:none;stroke:rgb(51,58,76);stroke-width:5px;"/>
        <g transform="matrix(0.707107,-0.707107,0.707107,0.707107,10.76,42.24)">
            <path d="M52.18,1.62L55.88,1.62C58.447,1.62 60.56,3.733 60.56,6.3L60.56,10C60.56,12.567 58.447,14.68 55.88,14.68L52.18,14.68L52.18,1.68L52.18,1.62Z" style="fill:none;stroke:rgb(51,58,76);stroke-width:5px;"/>
        </g>
        <path d="M11.96,43.32L21.18,52.54" style="fill:none;stroke:rgb(51,58,76);stroke-width:5px;"/>
    </g>
</svg>
