<?xml version="1.0" encoding="UTF-8"?>
<svg width="34px" height="34px" viewBox="0 0 34 34" version="1.1" xmlns="http://www.w3.org/2000/svg" xmlns:xlink="http://www.w3.org/1999/xlink">
    <!-- Generator: Sketch 46.2 (44496) - http://www.bohemiancoding.com/sketch -->
    <title>phone_airweave</title>
    <desc>Created with Sketch.</desc>
    <defs></defs>
    <g id="Icons" stroke="none" stroke-width="1" fill="none" fill-rule="evenodd">
        <g id="phone_airweave" fill-rule="nonzero" fill="#AEB1B7">
            <g id="noun_892021_cc" transform="translate(8.000000, 1.000000)">
                <g id="Group">
                    <path d="M3.87037037,0.130211236 C1.73835926,0.130211236 0,1.90659955 0,4.08526742 L0,27.8156225 C0,29.9942831 1.73835926,31.7706787 3.87037037,31.7706787 L15.1296296,31.7706787 C17.2616407,31.7706787 19,29.9942831 19,27.8156225 L19,4.08526742 C19,1.90659955 17.2616407,0.130211236 15.1296296,0.130211236 L3.87037037,0.130211236 Z M3.87037037,1.56841348 L15.1296296,1.56841348 C16.3866556,1.56841348 17.4037185,2.49387506 17.5706019,3.72571685 L1.42939815,3.72571685 C1.59628148,2.49387506 2.61334444,1.56841348 3.87037037,1.56841348 Z M1.40740741,5.1639191 L17.5925926,5.1639191 L17.5925926,25.2987685 L1.40740741,25.2987685 L1.40740741,5.1639191 Z M1.40740741,26.7369708 L17.5925926,26.7369708 L17.5925926,27.8156225 C17.5925926,29.2224 16.5062852,30.3324764 15.1296296,30.3324764 L3.87037037,30.3324764 C2.49371481,30.3324764 1.40740741,29.2224 1.40740741,27.8156225 L1.40740741,26.7369708 Z M9.5,27.4560719 C8.91705185,27.4560719 8.44444444,27.9389843 8.44444444,28.5347236 C8.44444444,29.130427 8.91705185,29.6133753 9.5,29.6133753 C10.0829833,29.6133753 10.5555556,29.130427 10.5555556,28.5347236 C10.5555556,27.9389843 10.0829833,27.4560719 9.5,27.4560719 Z" id="Shape"></path>
                </g>
            </g>
        </g>
    </g>
</svg>