<svg width="28" height="17" viewBox="0 0 28 17" fill="none" xmlns="http://www.w3.org/2000/svg">
<path d="M25.763 16.7111H1.26204C0.565741 16.7111 0 16.1454 0 15.4491V11.9241C0 11.2278 0.565741 10.662 1.26204 10.662H25.763C26.4593 10.662 27.025 11.2278 27.025 11.9241V15.4491C27.025 16.1454 26.4593 16.7111 25.763 16.7111ZM1.26204 11.5759C1.04444 11.5759 0.87037 11.75 0.87037 11.9676V15.4926C0.87037 15.7102 1.04444 15.8843 1.26204 15.8843H25.763C25.9806 15.8843 26.1546 15.7102 26.1546 15.4926V11.9676C26.1546 11.75 25.9806 11.5759 25.763 11.5759H1.26204Z" fill="#46555C"/>
<path d="M25.8065 9.00833H1.21853C1.04446 9.00833 0.913901 8.9213 0.826864 8.79074C0.739827 8.66018 0.739827 8.48611 0.870383 8.35556L6.35372 0.174074C6.44075 0.087037 6.57131 0 6.70186 0H20.2796C20.4102 0 20.5408 0.087037 20.6278 0.174074L26.1111 8.31204C26.1982 8.44259 26.1982 8.61667 26.1546 8.74722C26.1111 8.9213 25.937 9.00833 25.8065 9.00833ZM2.04538 8.13796H24.9796L20.062 0.87037H6.96298L2.04538 8.13796Z" fill="#46555C"/>
<path d="M25.3278 11.5759H1.69722C0.783333 11.5759 0 10.8361 0 9.87871C0 8.9213 0.739815 8.18149 1.69722 8.18149H25.2843C26.2417 8.18149 26.9815 8.9213 26.9815 9.87871C26.9815 10.8361 26.2417 11.5759 25.3278 11.5759ZM1.69722 9.05186C1.26204 9.05186 0.87037 9.44353 0.87037 9.87871C0.87037 10.3139 1.26204 10.7056 1.69722 10.7056H25.2843C25.7194 10.7056 26.1111 10.3139 26.1111 9.87871C26.1111 9.44353 25.7194 9.05186 25.2843 9.05186H1.69722Z" fill="#46555C"/>
<path d="M2.8287 16.2324C2.56758 16.2324 2.39351 16.0583 2.39351 15.7972V12.2722C2.39351 11.8806 2.08888 11.5759 1.69721 11.5759H1.17499C0.913881 11.5759 0.739807 11.4018 0.739807 11.1407C0.739807 10.8796 0.913881 10.7056 1.17499 10.7056H1.69721C2.56758 10.7056 3.26388 11.4018 3.26388 12.2722V15.7972C3.26388 16.0148 3.08981 16.2324 2.8287 16.2324Z" fill="#46555C"/>
<path d="M16.7981 16.7111H8.66017C7.7898 16.7111 7.09351 16.0148 7.09351 15.1444V11.1407C7.09351 10.8796 7.26758 10.7056 7.52869 10.7056C7.7898 10.7056 7.96388 10.8796 7.96388 11.1407V15.1444C7.96388 15.5361 8.26851 15.8407 8.66017 15.8407H16.7981C17.0592 15.8407 17.2333 16.0148 17.2333 16.2759C17.2333 16.537 17.0592 16.7111 16.7981 16.7111Z" fill="#46555C"/>
<path d="M17.0157 13.4037H14.4917C13.6213 13.4037 12.925 12.7074 12.925 11.837V11.0972C12.925 10.8361 13.0991 10.662 13.3602 10.662C13.6213 10.662 13.7954 10.8361 13.7954 11.0972V11.837C13.7954 12.2287 14.1 12.5333 14.4917 12.5333H17.0157C17.2768 12.5333 17.4509 12.7074 17.4509 12.9685C17.4509 13.2296 17.2768 13.4037 17.0157 13.4037Z" fill="#46555C"/>
<path d="M4.65645 14.4056H0.435155C0.174044 14.4056 -3.05176e-05 14.2315 -3.05176e-05 13.9704C-3.05176e-05 13.7093 0.174044 13.5352 0.435155 13.5352H4.65645C5.04812 13.5352 5.35275 13.2306 5.35275 12.8389V11.1417C5.35275 10.8806 5.52682 10.7065 5.78793 10.7065C6.04904 10.7065 6.22312 10.8806 6.22312 11.1417V12.8389C6.22312 13.7093 5.52682 14.4056 4.65645 14.4056Z" fill="#46555C"/>
<path d="M15.7537 16.7111C15.4926 16.7111 15.3185 16.537 15.3185 16.2759V12.3593C15.3185 12.0111 15.0139 11.7065 14.6657 11.7065H11.9676C11.6629 11.7935 11.4454 12.0546 11.4454 12.3593V16.2759C11.4454 16.537 11.2713 16.7111 11.0102 16.7111C10.7491 16.7111 10.575 16.537 10.575 16.2759V12.3593C10.575 11.6194 11.0972 10.9667 11.8805 10.8361C11.9241 10.8361 11.9241 10.8361 11.9676 10.8361H14.7092C15.5361 10.8361 16.2324 11.5324 16.2324 12.3593V16.2759C16.1889 16.537 16.0148 16.7111 15.7537 16.7111Z" fill="#46555C"/>
<path d="M13.6648 16.7111C13.4037 16.7111 13.2296 16.537 13.2296 16.2759V15.1009C13.2296 14.7092 12.925 14.4046 12.5333 14.4046H4.83054C4.56943 14.4046 4.39536 14.2305 4.39536 13.9694C4.39536 13.7083 4.56943 13.5342 4.83054 13.5342H12.5333C13.4037 13.5342 14.1 14.2305 14.1 15.1009V16.2759C14.1 16.537 13.9259 16.7111 13.6648 16.7111Z" fill="#46555C"/>
<path d="M26.5898 14.9269H18.1472C17.8861 14.9269 17.712 14.7528 17.712 14.4917C17.712 14.2306 17.8861 14.0565 18.1472 14.0565H26.5898C26.8509 14.0565 27.025 14.2306 27.025 14.4917C27.025 14.7528 26.8074 14.9269 26.5898 14.9269Z" fill="#46555C"/>
<path d="M24.762 16.7111C24.5009 16.7111 24.3268 16.537 24.3268 16.2759V13.8824C24.3268 13.4908 24.0222 13.1861 23.6305 13.1861H20.7583C19.6268 13.1861 18.713 12.2722 18.713 11.1408C18.713 10.8796 18.887 10.7056 19.1481 10.7056C19.4092 10.7056 19.5833 10.8796 19.5833 11.1408C19.5833 11.7935 20.1055 12.3158 20.7583 12.3158H23.6305C24.5009 12.3158 25.1972 13.012 25.1972 13.8824V16.2759C25.1972 16.537 24.9796 16.7111 24.762 16.7111Z" fill="#46555C"/>
<path d="M18.1472 16.7111C17.8861 16.7111 17.712 16.537 17.712 16.2759V14.1C17.712 13.7083 17.4074 13.4037 17.0157 13.4037C16.7546 13.4037 16.5805 13.2296 16.5805 12.9685C16.5805 12.7074 16.7546 12.5333 17.0157 12.5333C17.8861 12.5333 18.5824 13.2296 18.5824 14.1V16.2759C18.5824 16.537 18.3648 16.7111 18.1472 16.7111Z" fill="#46555C"/>
<path d="M21.4111 16.7111C21.15 16.7111 20.9759 16.537 20.9759 16.2759V11.1408C20.9759 10.8796 21.15 10.7056 21.4111 10.7056C21.6722 10.7056 21.8463 10.8796 21.8463 11.1408V16.2759C21.8463 16.537 21.6287 16.7111 21.4111 16.7111Z" fill="#46555C"/>
</svg>
