<?xml version="1.0" encoding="UTF-8" standalone="no"?>
<!DOCTYPE svg PUBLIC "-//W3C//DTD SVG 1.1//EN" "http://www.w3.org/Graphics/SVG/1.1/DTD/svg11.dtd">
<svg width="100%" height="100%" viewBox="0 0 27 20" version="1.1" xmlns="http://www.w3.org/2000/svg" xmlns:xlink="http://www.w3.org/1999/xlink" xml:space="preserve" style="fill-rule:evenodd;clip-rule:evenodd;stroke-linejoin:round;stroke-miterlimit:1.41421;">
    <g transform="matrix(1,0,0,1,0,-0.5)">
        <path d="M0,20.5L10.8,20.5L10.8,9.7L6.7,9.7C6.5,6.7 8.3,4.9 12.1,4.5L11.3,0.5C9.6,0.5 8,0.8 6.6,1.2C5.2,1.6 4,2.3 3,3.2C2,4 1.3,5.2 0.8,6.6C0.3,8 0,9.7 0,11.7L0,20.5ZM14.7,20.5L25.5,20.5L25.5,9.7L21.4,9.7C21.3,6.7 23.1,4.9 26.8,4.5L25.9,0.5C24.2,0.5 22.6,0.8 21.2,1.2C19.8,1.6 18.6,2.3 17.7,3.2C16.7,4.1 16,5.2 15.5,6.6C15,8 14.7,9.7 14.7,11.7L14.7,20.5Z" style="fill-rule:nonzero;"/>
    </g>
</svg>
