<svg width="76" height="56" viewBox="0 0 76 56" fill="none" xmlns="http://www.w3.org/2000/svg">
<g clip-path="url(#clip0)">
<path d="M74.2 54.9H1C0.4 54.9 0 54.5 0 53.9C0 53.3 0.4 52.9 1 52.9H74.2C74.8 52.9 75.2 53.3 75.2 53.9C75.2 54.5 74.8 54.9 74.2 54.9Z" fill="#537CC2"/>
<path d="M74.2 37.5H35.8C33.7 37.5 31.7 36.3 30.7 34.5L28.5 30.5C27.8 29.3 26.5 28.5 25.1 28.5H1C0.4 28.5 0 28.1 0 27.5C0 26.9 0.4 26.5 1 26.5H25C27.1 26.5 29.1 27.7 30.1 29.5L32.3 33.5C33 34.7 34.3 35.5 35.7 35.5H74.1C74.7 35.5 75.1 35.9 75.1 36.5C75.1 37.1 74.8 37.5 74.2 37.5Z" fill="#537CC2"/>
<path d="M22.6 54.9H9.39997C6.99997 54.9 4.99998 52.9 4.99998 50.5V40.9C4.99998 39.6 3.89998 38.5 2.59998 38.5H1.09998C0.499976 38.5 0.0999756 38.1 0.0999756 37.5C0.0999756 36.9 0.499976 36.5 1.09998 36.5H2.69998C5.09998 36.5 7.09998 38.5 7.09998 40.9V50.5C7.09998 51.8 8.19998 52.9 9.49998 52.9H22.7C24 52.9 25.1 51.8 25.1 50.5V38.5C25.1 37.2 24 36.1 22.7 36.1H10.5C8.09998 36.1 6.09998 34.1 6.09998 31.7V28.4C6.09998 27.8 6.49998 27.4 7.09998 27.4C7.69998 27.4 8.09998 27.8 8.09998 28.4V31.7C8.09998 33 9.19998 34.1 10.5 34.1H22.6C25 34.1 27 36.1 27 38.5V50.5C27 52.9 25 54.9 22.6 54.9Z" fill="#537CC2"/>
<path d="M48.2999 50.6H23.6999C21.2999 50.6 19.2999 48.6 19.2999 46.2V34.2C19.2999 31.8 21.2999 29.8 23.6999 29.8H29.7999C30.3999 29.8 30.7999 30.2 30.7999 30.8C30.7999 31.4 30.3999 31.8 29.7999 31.8H23.6999C22.3999 31.8 21.2999 32.9 21.2999 34.2V46.2C21.2999 47.5 22.3999 48.6 23.6999 48.6H48.2999C48.8999 48.6 49.2999 49 49.2999 49.6C49.2999 50.2 48.7999 50.6 48.2999 50.6Z" fill="#537CC2"/>
<path d="M48.8999 43H37.1999C34.7999 43 32.7999 41 32.7999 38.6V36.6C32.7999 36 33.1999 35.6 33.7999 35.6C34.3999 35.6 34.7999 36 34.7999 36.6V38.6C34.7999 39.9 35.8999 41 37.1999 41H48.8999C49.4999 41 49.8999 41.4 49.8999 42C49.8999 42.6 49.3999 43 48.8999 43Z" fill="#537CC2"/>
<path d="M11.6 50.6H1.09998C0.499976 50.6 0.0999756 50.2 0.0999756 49.6C0.0999756 49 0.499976 48.6 1.09998 48.6H11.6C12.9 48.6 14 47.5 14 46.2V28.5C14 27.9 14.4 27.5 15 27.5C15.6 27.5 16 27.9 16 28.5V46.3C15.9 48.6 14 50.6 11.6 50.6Z" fill="#537CC2"/>
<path d="M30.7 54.7C30.1 54.7 29.7 54.3 29.7 53.7V40.2C29.7 38.1 31.1999 36.3 33.2999 35.9C33.3999 35.9 33.4 35.9 33.5 35.9H41.7999C44.1999 35.9 46.0999 37.8 46.0999 40.2V53.6C46.0999 54.2 45.6999 54.6 45.0999 54.6C44.4999 54.6 44.0999 54.2 44.0999 53.6V40.2C44.0999 38.9 43.0999 37.9 41.7999 37.9H33.5999C32.4999 38.1 31.7 39.1 31.7 40.2V53.7C31.7 54.2 31.3 54.7 30.7 54.7Z" fill="#537CC2"/>
<path d="M38.8 54.6C38.2 54.6 37.8 54.2 37.8 53.6V47.7C37.8 46.4 36.7 45.3 35.4 45.3H1.09998C0.499976 45.3 0.0999756 44.9 0.0999756 44.3C0.0999756 43.7 0.499976 43.3 1.09998 43.3H35.4C37.8 43.3 39.8 45.3 39.8 47.7V53.6C39.8 54.2 39.3 54.6 38.8 54.6Z" fill="#537CC2"/>
<path d="M74.3 46.3H52.2C51.6 46.3 51.2 45.9 51.2 45.3C51.2 44.7 51.6 44.3 52.2 44.3H74.3C74.9 44.3 75.3 44.7 75.3 45.3C75.3 45.9 74.9 46.3 74.3 46.3Z" fill="#537CC2"/>
<path d="M72.2 54.9C71.6 54.9 71.2 54.5 71.2 53.9V44.7C71.2 43.4 70.1001 42.3 68.8001 42.3H60.1C56.9 42.3 54.3 39.7 54.3 36.5C54.3 35.9 54.7 35.5 55.3 35.5C55.9 35.5 56.3 35.9 56.3 36.5C56.3 38.6 58 40.3 60.1 40.3H68.8001C71.2001 40.3 73.2 42.3 73.2 44.7V53.9C73.2 54.4 72.7 54.9 72.2 54.9Z" fill="#537CC2"/>
<path d="M52.2001 54.9C51.6001 54.9 51.2001 54.5 51.2001 53.9V45.4C51.2001 44.1 50.1 43 48.8 43C48.2 43 47.8 42.6 47.8 42C47.8 41.4 48.2 41 48.8 41C51.2 41 53.2001 43 53.2001 45.4V53.9C53.2001 54.4 52.8001 54.9 52.2001 54.9Z" fill="#537CC2"/>
<path d="M62.1001 54.1C61.5001 54.1 61.1001 53.7 61.1001 53.1V36.5C61.1001 35.9 61.5001 35.5 62.1001 35.5C62.7001 35.5 63.1001 35.9 63.1001 36.5V53.1C63.1001 53.6 62.7001 54.1 62.1001 54.1Z" fill="#537CC2"/>
<path d="M74.3001 50.6H48.3C47.7 50.6 47.3 50.2 47.3 49.6C47.3 49 47.7 48.6 48.3 48.6H74.3001C74.9001 48.6 75.3001 49 75.3001 49.6C75.3001 50.2 74.9001 50.6 74.3001 50.6Z" fill="#537CC2"/>
<path d="M28 11.6C27.4 11.6 27 11.2 27 10.6C27 10 27.4 9.60001 28 9.60001H32.4C32.4 9.60001 34.9 9.3 36.6 6.90001L37.1 6.20001C38.8 3.70001 40.3 1.50001 43.5 0.500005C46.8 -0.599995 51.2 0.300005 55.7 3.00001C56 3.20001 56.3 3.4 56.6 3.6C58.7 4.9 62.1 7.20001 68.1 6.20001L73.9 5.20001C74.5 5.10001 75 5.50001 75.1 6.00001C75.2 6.50001 74.8 7.10001 74.3 7.20001L68.5 8.2C61.7 9.3 57.9 6.80001 55.6 5.30001C55.3 5.00001 55 4.8 54.8 4.70001C50.8 2.40001 46.9 1.50001 44.2 2.40001C41.7 3.20001 40.5 4.90001 38.8 7.40001L38.3 8.10001C36.1 11.3 32.7 11.7 32.6 11.7L28 11.6Z" fill="#537CC2"/>
<path d="M74.3 32.5H40.4C36.1 32.5 34.5 29.7 33.4 26.8C32.2 23.5 30.8 22.4 28.3 22.4H24.5C23.9 22.4 23.5 22 23.5 21.4C23.5 20.8 23.9 20.4 24.5 20.4H28.3C32.6 20.4 34.2 23.2 35.3 26.1C36.5 29.4 37.8 30.5 40.4 30.5H74.3C74.9 30.5 75.3 30.9 75.3 31.5C75.3 32.1 74.9 32.5 74.3 32.5Z" fill="#537CC2"/>
<path d="M18.2 24.2H14.1C8.20003 24.2 3.40002 19.4 3.40002 13.5C3.40002 7.6 8.20003 2.8 14.1 2.8H18.2C24.1 2.8 28.9 7.6 28.9 13.5C28.9 14.1 28.5 14.5 27.9 14.5C27.3 14.5 26.9 14.1 26.9 13.5C26.9 8.7 23 4.8 18.2 4.8H14.1C9.30002 4.8 5.40002 8.7 5.40002 13.5C5.40002 18.3 9.30002 22.2 14.1 22.2H18.2C21 22.2 23.5 20.9 25.2 18.7C25.5 18.3 26.2 18.2 26.6 18.5C27 18.8 27.1 19.5 26.8 19.9C24.8 22.5 21.6 24.2 18.2 24.2Z" fill="#537CC2"/>
<path d="M64.6 8.40001H49.3C48.7 8.40001 48.3 8.00001 48.3 7.40001C48.3 6.80001 48.7 6.40001 49.3 6.40001H64.6C65.2 6.40001 65.6 6.80001 65.6 7.40001C65.6 8.00001 65.2 8.40001 64.6 8.40001Z" fill="#537CC2"/>
<path d="M69.8 18.2C69.2 18.2 68.8 17.8 68.8 17.2C68.8 16.6 69.2 16.2 69.8 16.2C70.4 16.2 70.8 16.6 70.8 17.2C70.8 17.8 70.3 18.2 69.8 18.2ZM65.8 18.2C65.2 18.2 64.8 17.8 64.8 17.2C64.8 16.6 65.2 16.2 65.8 16.2C66.4 16.2 66.8 16.6 66.8 17.2C66.8 17.8 66.3 18.2 65.8 18.2ZM61.7999 18.2C61.1999 18.2 60.7999 17.8 60.7999 17.2C60.7999 16.6 61.1999 16.2 61.7999 16.2C62.4 16.2 62.7999 16.6 62.7999 17.2C62.7999 17.8 62.2999 18.2 61.7999 18.2ZM57.7999 18.2C57.1999 18.2 56.7999 17.8 56.7999 17.2C56.7999 16.6 57.1999 16.2 57.7999 16.2C58.4 16.2 58.7999 16.6 58.7999 17.2C58.7999 17.8 58.2999 18.2 57.7999 18.2ZM53.7999 18.2C53.1999 18.2 52.7999 17.8 52.7999 17.2C52.7999 16.6 53.1999 16.2 53.7999 16.2C54.4 16.2 54.7999 16.6 54.7999 17.2C54.7999 17.8 54.2999 18.2 53.7999 18.2ZM49.7 18.2C49.1 18.2 48.7 17.8 48.7 17.2C48.7 16.6 49.1 16.2 49.7 16.2C50.3 16.2 50.7 16.6 50.7 17.2C50.7 17.8 50.3 18.2 49.7 18.2ZM45.7 18.2C45.1 18.2 44.7 17.8 44.7 17.2C44.7 16.6 45.1 16.2 45.7 16.2C46.3 16.2 46.7 16.6 46.7 17.2C46.7 17.8 46.3 18.2 45.7 18.2ZM41.7 18.2C41.1 18.2 40.7 17.8 40.7 17.2C40.7 16.6 41.1 16.2 41.7 16.2C42.3 16.2 42.7 16.6 42.7 17.2C42.7 17.8 42.3 18.2 41.7 18.2ZM37.7 18.2C37.1 18.2 36.7 17.8 36.7 17.2C36.7 16.6 37.1 16.2 37.7 16.2C38.3 16.2 38.7 16.6 38.7 17.2C38.7 17.8 38.3 18.2 37.7 18.2ZM33.7 18.2C33.1 18.2 32.7 17.8 32.7 17.2C32.7 16.6 33.1 16.2 33.7 16.2C34.3 16.2 34.7 16.6 34.7 17.2C34.7 17.8 34.3 18.2 33.7 18.2Z" fill="#537CC2"/>
</g>
<defs>
<clipPath id="clip0">
<rect width="75.3" height="55.8" fill="white"/>
</clipPath>
</defs>
</svg>
