<svg width="25" height="25" viewBox="0 0 25 25" fill="none" xmlns="http://www.w3.org/2000/svg">
<path d="M8.33333 23.9583C9.48393 23.9583 10.4167 23.0256 10.4167 21.875C10.4167 20.7244 9.48393 19.7917 8.33333 19.7917C7.18274 19.7917 6.25 20.7244 6.25 21.875C6.25 23.0256 7.18274 23.9583 8.33333 23.9583Z" stroke="#537FC2" stroke-linecap="round" stroke-linejoin="round"/>
<path d="M20.8333 23.9583C21.9839 23.9583 22.9167 23.0256 22.9167 21.875C22.9167 20.7244 21.9839 19.7917 20.8333 19.7917C19.6827 19.7917 18.75 20.7244 18.75 21.875C18.75 23.0256 19.6827 23.9583 20.8333 23.9583Z" stroke="#537FC2" stroke-linecap="round" stroke-linejoin="round"/>
<path d="M5.90621 6.24999H23.9583L22.2083 14.9896C22.113 15.4691 21.8521 15.8999 21.4713 16.2065C21.0904 16.5131 20.6138 16.676 20.125 16.6667H9.11454C8.60588 16.671 8.11321 16.489 7.72944 16.1552C7.34567 15.8213 7.09732 15.3585 7.03121 14.8542L5.44788 2.85416C5.38222 2.35336 5.13686 1.89347 4.75746 1.56006C4.37806 1.22665 3.89046 1.04242 3.38538 1.04166H1.04163" stroke="#537FC2" stroke-linecap="round" stroke-linejoin="round"/>
</svg>
