<svg width="54" height="53" viewBox="0 0 54 53" fill="none" xmlns="http://www.w3.org/2000/svg">
<path d="M48.3 52.1H1C0.4 52.1 0 51.7 0 51.1C0 50.5 0.4 50.1 1 50.1H48.3C48.9 50.1 49.3 50.5 49.3 51.1C49.3 51.7 48.8 52.1 48.3 52.1Z" fill="#537CC2"/>
<path d="M48.3 34.7H41.3C39.5 34.7 37.7 34.2 36.1 33.2L25.7 26.8C24.4 26 23 25.6 21.5 25.6H1C0.4 25.6 0 25.2 0 24.6C0 24 0.4 23.6 1 23.6H21.5C23.3 23.6 25.1 24.1 26.7 25.1L37.1 31.5C38.4 32.3 39.8 32.7 41.3 32.7H48.3C48.9 32.7 49.3 33.1 49.3 33.7C49.3 34.3 48.8 34.7 48.3 34.7Z" fill="#537CC2"/>
<path d="M17.7 21.4H13.8C7.99995 21.4 3.19995 16.6 3.19995 10.7C3.19995 4.8 7.99995 0 13.8 0H27.9C28.5 0 28.9 0.4 28.9 1V13.4C28.9 14 28.5 14.4 27.9 14.4C27.2999 14.4 26.9 14 26.9 13.4V2H13.8C8.99995 2 5.09995 5.9 5.09995 10.7C5.09995 15.5 8.99995 19.4 13.8 19.4H17.7C20.3 19.4 22.9 18.3 24.6 16.3C25 15.9 25.6 15.8 26 16.2C26.4 16.6 26.5 17.2 26.1 17.6C24 20 21 21.4 17.7 21.4Z" fill="#537CC2"/>
<path d="M34 11.9C33.1 11.9 32 11.7 30.7 11.3L27.6 10.2C27 10 26.8 9.4 27 8.9C27.2 8.4 27.8 8.1 28.3 8.3L31.3 9.4C34.3 10.4 35.2 9.8 37 8.9C37.2 8.8 37.5 8.7 37.7 8.5L41.1 6.8C42.6 6.1 44.3 5.7 46 5.7H48.2001C48.8001 5.7 49.2001 6.1 49.2001 6.7C49.2001 7.3 48.8001 7.7 48.2001 7.7H46C44.6 7.7 43.2 8 42 8.6L38.6 10.3C38.4 10.4 38.1 10.5 37.9001 10.6C36.7001 11.3 35.6 11.9 34 11.9Z" fill="#537CC2"/>
<path d="M48.2999 29.2H43.1999C40.1999 29.2 37.1999 28.1 34.7999 26.2L31.7999 23.8C31.2999 23.4 30.6999 23 29.9999 22.6L23.4999 19.1C22.9999 18.8 22.7999 18.2 23.0999 17.7C23.3999 17.2 23.9999 17 24.4999 17.3L30.9999 20.8C31.6999 21.2 32.3999 21.7 33.0999 22.2L36.0999 24.6C38.0999 26.2 40.5999 27.1 43.1999 27.1H48.2999C48.8999 27.1 49.2999 27.5 49.2999 28.1C49.2999 28.7 48.7999 29.2 48.2999 29.2Z" fill="#537CC2"/>
<path d="M47.6 26.1C47 26.1 46.6 25.7 46.6 25.1C46.6 24.5 47 24.1 47.6 24.1C48.2 24.1 48.6 24.5 48.6 25.1C48.6 25.7 48.2 26.1 47.6 26.1ZM43.6 26H43.5C43 25.9 42.6 25.5 42.6 25C42.6 24.3 43.3 23.8 43.9 24.1C44.4 24.3 44.7 24.8 44.5 25.4C44.4 25.8 44 26 43.6 26ZM39.7 25.1C39.6 25.1 39.4 25.1 39.3 25C38.8 24.8 38.6 24.3 38.7 23.8C38.9 23.3 39.4 23 40 23.2C40.1 23.2 40.1 23.3 40.2 23.3C40.7 23.6 40.8 24.2 40.6 24.7C40.4 24.9 40.1 25.1 39.7 25.1ZM36.4 22.9C36.2 22.9 36 22.8 35.8 22.7C35.4 22.4 35.3 21.7 35.7 21.3C36 20.9 36.7 20.8 37.1 21.2C37.5 21.5 37.6 22.2 37.2 22.6C36.9 22.8 36.6 22.9 36.4 22.9ZM33.2 20.4C33 20.4 32.8 20.3 32.6 20.2C32.2 19.9 32.1 19.3 32.4 18.8C32.7 18.3 33.3 18.3 33.8 18.6C33.8 18.6 33.9 18.6 33.9 18.7C34.3 19 34.4 19.7 34.1 20.1C33.8 20.3 33.5 20.4 33.2 20.4ZM29.8 18.4C29.6 18.4 29.5 18.4 29.3 18.3C28.8 18 28.6 17.4 28.9 16.9C29.2 16.4 29.8 16.2 30.3 16.5C30.8 16.8 31 17.4 30.7 17.9C30.4 18.3 30.1 18.4 29.8 18.4Z" fill="#537CC2"/>
<path d="M48.3 15.3C48.2 15.3 48.1 15.3 48 15.3C47.4 15.1 46.7 15 46 14.9H40.3C39.7 14.9 39.3 14.4 39.3 13.9C39.3 13.4 39.8 12.9 40.3 12.9H46C46.9 13 47.7 13.1 48.5 13.4C49 13.6 49.3001 14.1 49.2001 14.6C49.1 15 48.7 15.3 48.3 15.3Z" fill="#537CC2"/>
<path d="M22.6 52.1H9.39997C6.99997 52.1 4.99998 50.1 4.99998 47.7V38.1C4.99998 36.8 3.89998 35.7 2.59998 35.7H1.09998C0.499976 35.7 0.0999756 35.3 0.0999756 34.7C0.0999756 34.1 0.499976 33.7 1.09998 33.7H2.69998C5.09998 33.7 7.09998 35.7 7.09998 38.1V47.7C7.09998 49 8.19998 50.1 9.49998 50.1H22.7C24 50.1 25.1 49 25.1 47.7V35.7C25.1 34.4 24 33.3 22.7 33.3H10.5C8.09998 33.3 6.09998 31.3 6.09998 28.9V25.6C6.09998 25 6.49998 24.6 7.09998 24.6C7.69998 24.6 8.09998 25 8.09998 25.6V28.9C8.09998 30.2 9.19998 31.3 10.5 31.3H22.6C25 31.3 27 33.3 27 35.7V47.7C27 50.1 25 52.1 22.6 52.1Z" fill="#537CC2"/>
<path d="M48.2999 47.8H23.6999C21.2999 47.8 19.2999 45.8 19.2999 43.4V31.4C19.2999 29 21.2999 27 23.6999 27H28.7999C29.3999 27 29.7999 27.4 29.7999 28C29.7999 28.6 29.3999 29 28.7999 29H23.6999C22.3999 29 21.2999 30.1 21.2999 31.4V43.4C21.2999 44.7 22.3999 45.8 23.6999 45.8H48.2999C48.8999 45.8 49.2999 46.2 49.2999 46.8C49.2999 47.4 48.7999 47.8 48.2999 47.8Z" fill="#537CC2"/>
<path d="M48.2999 40.2H37.1999C34.7999 40.2 32.7999 38.2 32.7999 35.8V31.1C32.7999 30.5 33.1999 30.1 33.7999 30.1C34.3999 30.1 34.7999 30.5 34.7999 31.1V35.8C34.7999 37.1 35.8999 38.2 37.1999 38.2H48.2999C48.8999 38.2 49.2999 38.6 49.2999 39.2C49.2999 39.8 48.7999 40.2 48.2999 40.2Z" fill="#537CC2"/>
<path d="M11.6 47.8H1.09998C0.499976 47.8 0.0999756 47.4 0.0999756 46.8C0.0999756 46.2 0.499976 45.8 1.09998 45.8H11.6C12.9 45.8 14 44.7 14 43.4V25.7C14 25.1 14.4 24.7 15 24.7C15.6 24.7 16 25.1 16 25.7V43.5C15.9 45.8 14 47.8 11.6 47.8Z" fill="#537CC2"/>
<path d="M30.7 51.9C30.1 51.9 29.7 51.5 29.7 50.9V37.4C29.7 35.3 31.1999 33.5 33.2999 33.1C33.3999 33.1 33.4 33.1 33.5 33.1H41.7999C44.1999 33.1 46.0999 35 46.0999 37.4V50.8C46.0999 51.4 45.6999 51.8 45.0999 51.8C44.4999 51.8 44.0999 51.4 44.0999 50.8V37.4C44.0999 36.1 43.0999 35.1 41.7999 35.1H33.5999C32.4999 35.3 31.7 36.3 31.7 37.4V50.9C31.7 51.4 31.3 51.9 30.7 51.9Z" fill="#537CC2"/>
<path d="M38.8 51.8C38.2 51.8 37.8 51.4 37.8 50.8V45C37.8 43.7 36.7 42.6 35.4 42.6H1.09998C0.499976 42.6 0.0999756 42.2 0.0999756 41.6C0.0999756 41 0.499976 40.6 1.09998 40.6H35.4C37.8 40.6 39.8 42.6 39.8 45V50.9C39.8 51.4 39.3 51.8 38.8 51.8Z" fill="#537CC2"/>
</svg>
