<?xml version="1.0" encoding="utf-8"?>
<!-- Generator: Adobe Illustrator 16.0.4, SVG Export Plug-In . SVG Version: 6.00 Build 0)  -->
<!DOCTYPE svg PUBLIC "-//W3C//DTD SVG 1.1//EN" "http://www.w3.org/Graphics/SVG/1.1/DTD/svg11.dtd">
<svg version="1.1" id="Layer_1" xmlns="http://www.w3.org/2000/svg" xmlns:xlink="http://www.w3.org/1999/xlink" x="0px" y="0px"
   width="375.647px" height="237.355px" viewBox="0 0 375.647 237.355" enable-background="new 0 0 375.647 237.355"
   xml:space="preserve">
<g>
  <path fill="#ADB4B8" d="M375.634,86.584c0.174-5.658-3.264-10.957-9.479-14.57L250.436,4.766
    c-10.946-6.36-28.148-6.364-39.161-0.007L9.571,121.213c-5.619,3.243-9.008,7.816-9.542,12.877L0,134.359l0.005,1.632v15.679
    l0.24,2.156l0.104,0.555c1.075,4.336,4.221,8.125,9.097,10.959l115.719,67.249c5.476,3.183,12.516,4.773,19.564,4.773
    c7.042,0,14.093-1.589,19.596-4.767L366.03,116.141c4.989-2.881,7.987-6.268,8.913-10.068c0.324-1.336,0.604-2.796,0.615-2.857
    l0.089-0.465V86.584H375.634z M5.82,135.976H5.136l0.684-0.002C5.82,135.975,5.82,135.975,5.82,135.976z M9.843,135.962
    l0.163-0.001l-0.003-1.021c0.056-0.23,0.106-0.463,0.188-0.691c0.558-1.506,2.099-3.06,4.38-4.376l22.203-12.819
    c0.09,0.098,0.196,0.192,0.338,0.275l129.667,75.354c0.774,0.449,2.046,0.449,2.825,0c0.786-0.454,0.79-1.191,0.016-1.642
    L39.952,115.688c-0.144-0.083-0.317-0.135-0.488-0.187l30.72-17.736c0.089,0.098,0.196,0.192,0.337,0.274l129.667,75.355
    c0.774,0.449,2.047,0.449,2.832-0.004c0.779-0.45,0.783-1.187,0.009-1.637L73.363,96.399c-0.144-0.083-0.317-0.135-0.488-0.188
    l30.726-17.74c0.09,0.098,0.197,0.192,0.339,0.275L233.606,154.1c0.773,0.45,2.04,0.453,2.825,0
    c0.786-0.454,0.782-1.187,0.01-1.637L106.774,77.109c-0.144-0.083-0.316-0.135-0.488-0.188l30.726-17.74
    c0.089,0.098,0.196,0.192,0.338,0.275l129.667,75.354c0.773,0.449,2.046,0.449,2.824,0c0.786-0.454,0.79-1.191,0.017-1.641
    L140.191,57.815c-0.144-0.083-0.317-0.135-0.489-0.187l30.72-17.737c0.09,0.098,0.196,0.192,0.338,0.274l129.667,75.355
    c0.773,0.449,2.047,0.449,2.832-0.004c0.778-0.45,0.783-1.187,0.01-1.637L173.603,38.526c-0.144-0.083-0.317-0.135-0.489-0.188
    l30.726-17.74c0.09,0.098,0.197,0.192,0.339,0.275l129.667,75.354c0.773,0.45,2.04,0.453,2.825,0
    c0.785-0.454,0.782-1.187,0.009-1.637L207.014,19.236c-0.144-0.083-0.317-0.136-0.488-0.188l9.749-5.628
    c1.123-0.648,2.363-1.195,3.673-1.66c2.806-0.714,5.866-1.1,9.046-1.1c5.976,0,11.548,1.326,15.689,3.732L357.98,80.235
    c3.786,2.199,5.869,5.011,5.865,7.916c-0.004,2.931-2.124,5.768-5.969,7.988L160.392,210.158c-4.173,2.41-9.762,3.737-15.738,3.737
    c0,0-0.001,0-0.001,0c-5.975-0.001-11.546-1.326-15.689-3.734L15.665,144.318c-3.134-1.821-5.079-4.065-5.659-6.433v-1.909H9.842
    C9.842,135.971,9.842,135.967,9.843,135.962z M365.647,101.789c-0.094,0.466-0.252,1.222-0.422,1.922
    c-0.039,0.161-0.488,1.629-4.196,3.771L159.326,223.935c-7.926,4.575-21.268,4.58-29.136,0.007L14.471,156.693
    c-2.336-1.357-3.872-2.948-4.354-4.502l-0.111-0.848v-6.234c1.039,0.961,2.254,1.857,3.649,2.668l113.298,65.843
    c4.744,2.757,11.029,4.274,17.699,4.275c0.001,0,0.001,0,0.002,0c6.667,0,12.966-1.518,17.738-4.272L359.877,99.604
    c2.485-1.435,4.424-3.129,5.771-4.996V101.789z"/>
</g>
</svg>
