<svg xmlns="http://www.w3.org/2000/svg" viewBox="0 0 145 93.25"><defs><style>.cls-1{fill:#adb3b9;}</style></defs><title>Airweave_Icon_Toppers</title><g id="Layer_2" data-name="Layer 2"><g id="Layer_1-2" data-name="Layer 1"><path class="cls-1" d="M143.19,30.66,90.3.47A3.62,3.62,0,0,0,88.52,0a3.57,3.57,0,0,0-1.81.49L1.8,49.78A3.6,3.6,0,0,0,0,52.89v5.65a3.61,3.61,0,0,0,1.8,3.11L55.3,92.76a3.57,3.57,0,0,0,1.81.49,3.66,3.66,0,0,0,1.84-.5l84.29-49.88a3.61,3.61,0,0,0,1.76-3.1v-6A3.6,3.6,0,0,0,143.19,30.66ZM88.52,4.06l52.32,29.87-8.19,4.85L80.92,8.47Zm-8.61,5,51.74,30.31-16,9.44L63.8,18.41ZM62.8,19,114.71,49.4l-16,9.44L46.69,28.34ZM45.69,28.92,97.76,59.43l-16,9.44L29.58,38.27ZM28.57,38.86l52.24,30.6-16,9.44L12.46,48.21ZM11.46,48.79l52.4,30.7-5.17,3.06a3.1,3.1,0,0,1-3.13,0L4.46,52.85ZM141,39.54,57.11,89.18,4,58.31V53.74L55.05,83.42a4.09,4.09,0,0,0,4.15,0L141,35Z"/></g></g></svg>
