<svg width="48" height="48" viewBox="0 0 48 48" fill="none" xmlns="http://www.w3.org/2000/svg">
<g clip-path="url(#clip0)">
<path d="M7.19994 42.7C6.59994 42.7 6.19994 42.5 5.79994 42.2C2.99994 39.4 12.8999 28.2 12.9999 28.1L37.5999 3.50001C39.1999 1.90001 45.0999 -1.49999 47.2999 0.700014C49.4999 2.90001 46.0999 8.80001 44.4999 10.4L19.8999 35C19.7999 35.1 11.1999 42.7 7.19994 42.7ZM45.2999 2.00001C43.8999 2.00001 40.5999 3.40001 38.9999 4.90001L14.3999 29.5C13.6999 30.2 11.6999 32.7 9.99994 35.2C7.59994 38.8 7.29994 40.3 7.29994 40.7C7.69994 40.7 9.09994 40.4 12.7999 38C15.3999 36.3 17.7999 34.3 18.4999 33.6L43.0999 9.00001C44.8999 7.20001 46.4999 2.80001 45.8999 2.10001C45.6999 2.00001 45.4999 2.00001 45.2999 2.00001Z" fill="#537CC2"/>
<path d="M38.9999 45.8C38.0999 45.8 37.1999 45.3 36.7999 44.5L27.6999 25.4C27.4999 24.9 27.6999 24.3 28.1999 24.1C28.6999 23.9 29.2999 24.1 29.4999 24.6L38.5999 43.6C38.6999 43.7 38.8999 43.8 39.0999 43.8C39.2999 43.8 39.4999 43.7 39.4999 43.6C39.5999 43.5 39.6999 43.4 39.5999 43.1L34.5999 18.2C34.4999 17.7 34.7999 17.1 35.3999 17C35.8999 16.9 36.4999 17.2 36.5999 17.8L41.5999 42.7C41.7999 43.4 41.5999 44.2 41.0999 44.8C40.4999 45.4 39.7999 45.8 38.9999 45.8Z" fill="#537CC2"/>
<path d="M23 20.4C22.9 20.4 22.7 20.4 22.6 20.3L3.59995 11.2C2.69995 10.7 2.19995 9.90004 2.19995 8.90004C2.19995 8.10004 2.59995 7.40004 3.09995 7.00004C3.69995 6.50004 4.49995 6.30004 5.19995 6.50004L30.1 11.5C30.6 11.6 31 12.1 30.9 12.7C30.7999 13.2 30.3 13.6 29.7 13.5L4.79995 8.50004C4.59995 8.50004 4.39995 8.50004 4.29995 8.60004C4.29995 8.60004 4.19995 8.70004 4.19995 9.00004C4.19995 9.20004 4.29995 9.40004 4.49995 9.50004L23.5 18.6C24 18.8 24.2 19.4 24 19.9C23.7999 20.2 23.4 20.4 23 20.4Z" fill="#537CC2"/>
<path d="M16.1999 48C15.8999 48 15.4999 47.8 15.2999 47.5L10.9999 40.3C10.6999 39.8 10.8999 39.2 11.2999 38.9C11.6999 38.6 12.3999 38.8 12.6999 39.2L16.5999 45.7L17.7999 45.2L16.5999 36.1C16.4999 35.6 16.8999 35.1 17.4999 35C17.9999 34.9 18.4999 35.3 18.5999 35.9L19.8999 45.7C19.9999 46.1 19.6999 46.6 19.2999 46.7L16.5999 47.9C16.4999 48 16.2999 48 16.1999 48Z" fill="#537CC2"/>
<path d="M8.19995 37.1C7.99995 37.1 7.79994 37.1 7.69994 37L0.499945 32.7C0.0999453 32.4 -0.100055 31.9 0.0999453 31.4L1.29995 28.7C1.49995 28.3 1.89995 28.1 2.29995 28.1L12.0999 29.4C12.5999 29.5 12.9999 30 12.9999 30.5C12.8999 31 12.3999 31.4 11.8999 31.4L2.79995 30.2L2.29995 31.4L8.79995 35.3C9.29995 35.6 9.39995 36.2 9.09995 36.7C8.89995 37 8.59995 37.1 8.19995 37.1Z" fill="#537CC2"/>
</g>
<defs>
<clipPath id="clip0">
<rect width="48" height="48" fill="white"/>
</clipPath>
</defs>
</svg>
