<?xml version="1.0" encoding="UTF-8" standalone="no"?>
<!DOCTYPE svg PUBLIC "-//W3C//DTD SVG 1.1//EN" "http://www.w3.org/Graphics/SVG/1.1/DTD/svg11.dtd">
<svg width="100%" height="100%" viewBox="0 0 17 14" version="1.1" xmlns="http://www.w3.org/2000/svg" xmlns:xlink="http://www.w3.org/1999/xlink" xml:space="preserve" style="fill-rule:evenodd;clip-rule:evenodd;stroke-linejoin:round;stroke-miterlimit:1.41421;">
    <g transform="matrix(1,0,0,1,0.004,-2.001)">
        <path d="M16,3.538C15.412,3.801 14.778,3.976 14.116,4.054C14.794,3.648 15.313,3.004 15.56,2.238C14.926,2.613 14.222,2.888 13.476,3.035C12.876,2.397 12.023,2.001 11.079,2.001C9.266,2.001 7.798,3.47 7.798,5.282C7.798,5.538 7.826,5.788 7.882,6.029C5.154,5.891 2.735,4.585 1.116,2.598C0.835,3.082 0.672,3.648 0.672,4.248C0.672,5.386 1.25,6.392 2.131,6.979C1.593,6.963 1.087,6.813 0.643,6.57C0.643,6.583 0.643,6.598 0.643,6.611C0.643,8.202 1.774,9.53 3.277,9.83C3.002,9.905 2.711,9.946 2.411,9.946C2.199,9.946 1.995,9.924 1.792,9.887C2.211,11.19 3.423,12.14 4.858,12.168C3.733,13.049 2.32,13.574 0.78,13.574C0.514,13.574 0.255,13.558 -0.004,13.527C1.452,14.461 3.177,15.002 5.03,15.002C11.067,15.002 14.371,9.999 14.371,5.661C14.371,5.517 14.368,5.377 14.362,5.236C15.003,4.777 15.559,4.198 15.999,3.539L16,3.538Z" style="fill-rule:nonzero;"/>
    </g>
</svg>
