<svg width="72" height="72" viewBox="0 0 72 72" fill="none" xmlns="http://www.w3.org/2000/svg">
<g clip-path="url(#clip0)">
<path d="M22.9 49.3C22.6 49.3 22.4001 49.2 22.2001 49L5.60005 32.4C5.20005 32 5.20005 31.4 5.60005 31C6.00005 30.6 6.60005 30.6 7.00005 31L23.6 47.6C24 48 24 48.6 23.6 49C23.4 49.2 23.2 49.3 22.9 49.3Z" fill="#537CC2"/>
<path d="M39.5 40.4C39.2 40.4 39 40.3 38.8 40.1L22.2 23.6C21.8 23.2 21.8 22.6 22.2 22.2C22.6 21.8 23.2 21.8 23.6 22.2L40.2 38.8C40.6 39.2 40.6 39.8 40.2 40.2C40 40.3 39.7 40.4 39.5 40.4Z" fill="#537CC2"/>
<path d="M10.2 36.6C9.89995 36.6 9.69995 36.5 9.49995 36.3C9.09995 35.9 9.09995 35.3 9.49995 34.9L26.1 18.3C26.5 17.9 27.1 17.9 27.5 18.3C27.9 18.7 27.9 19.3 27.5 19.7L10.9 36.3C10.7 36.5 10.4 36.6 10.2 36.6Z" fill="#537CC2"/>
<path d="M36.6 35.6C36.3 35.6 36.1 35.5 35.9 35.3C35.5 34.9 35.5 34.3 35.9 33.9L39.1 30.7C39.5 30.3 40.1 30.3 40.5 30.7C40.9 31.1 40.9 31.7 40.5 32.1L37.3 35.3C37.1 35.5 36.8 35.6 36.6 35.6Z" fill="#537CC2"/>
<path d="M21.6 22.5C21.3 22.5 21.1 22.4 20.9 22.2C20.5 21.8 20.5 21.2 20.9 20.8C21.3 20.4 21.9 20.4 22.3 20.8C22.7 21.2 22.7 21.8 22.3 22.2C22.1 22.4 21.8 22.5 21.6 22.5ZM18.7 19.7C18.4 19.7 18.2 19.6 18 19.4C17.6 19 17.6 18.4 18 18C18.4 17.6 19 17.6 19.4 18C19.8 18.4 19.8 19 19.4 19.4C19.2 19.6 19 19.7 18.7 19.7Z" fill="#537CC2"/>
<path d="M1 45.7C0.7 45.7 0.5 45.6 0.3 45.4C-0.1 45 -0.1 44.4 0.3 44C0.7 43.6 1.3 43.6 1.7 44C2.1 44.4 2.1 45 1.7 45.4C1.5 45.6 1.3 45.7 1 45.7ZM3.8 42.9C3.5 42.9 3.3 42.8 3.1 42.6C2.7 42.2 2.7 41.6 3.1 41.2C3.5 40.8 4.1 40.8 4.5 41.2C4.9 41.6 4.9 42.2 4.5 42.6C4.3 42.8 4.1 42.9 3.8 42.9ZM6.7 40.1C6.4 40.1 6.2 40 6 39.8C5.6 39.4 5.6 38.8 6 38.4C6.4 38 7 38 7.4 38.4C7.8 38.8 7.8 39.4 7.4 39.8C7.2 40 6.9 40.1 6.7 40.1Z" fill="#537CC2"/>
<path d="M27.1 53.4C26.8 53.4 26.6 53.3 26.4 53.1C26 52.7 26 52.1 26.4 51.7C26.8 51.3 27.4 51.3 27.8 51.7C28.2 52.1 28.2 52.7 27.8 53.1C27.6 53.3 27.3 53.4 27.1 53.4ZM24.2 50.6C24 50.6 23.7 50.5 23.5 50.3C23.1 49.9 23.1 49.3 23.5 48.9C23.9 48.5 24.5 48.5 24.9 48.9C25.3 49.3 25.3 49.9 25 50.3C24.8 50.5 24.5 50.6 24.2 50.6Z" fill="#537CC2"/>
<path d="M19 53.1C18.7 53.1 18.5 53 18.3 52.8C17.9 52.4 17.9 51.8 18.3 51.4L34.9 34.8C35.3 34.4 35.9 34.4 36.3 34.8C36.7 35.2 36.7 35.8 36.3 36.2L19.7 52.8C19.5 53 19.3 53.1 19 53.1Z" fill="#537CC2"/>
<path d="M35.5999 36.6C35.2999 36.6 35.0999 36.5 34.8999 36.3L22.1999 23.6C21.7999 23.2 21.7999 22.6 22.1999 22.2L34.8999 9.39998C35.2999 8.99998 35.8999 8.99998 36.2999 9.39998L48.9999 22.2C49.3999 22.6 49.3999 23.2 48.9999 23.6L36.2999 36.3C36.0999 36.5 35.8999 36.6 35.5999 36.6ZM24.2999 22.9L35.5999 34.2L46.8999 22.9L35.5999 11.6L24.2999 22.9Z" fill="#537CC2"/>
<path d="M35.6 36.6C35.3 36.6 35.1 36.5 34.9 36.3L18.3 19.7C17.9 19.3 17.9 18.7 18.3 18.3C18.7 17.9 19.3 17.9 19.7 18.3L36.3 34.9C36.7 35.3 36.7 35.9 36.3 36.3C36.1 36.5 35.9 36.6 35.6 36.6Z" fill="#537CC2"/>
<path d="M52.2 27.7C51.9 27.7 51.7 27.6 51.5 27.4L34.9 10.9C34.5 10.5 34.5 9.90001 34.9 9.50001C35.3 9.10001 35.9 9.10001 36.3 9.50001L52.9 26C53.3 26.4 53.3 27 52.9 27.4C52.7 27.6 52.4 27.7 52.2 27.7Z" fill="#537CC2"/>
<path d="M22.8999 23.9C22.5999 23.9 22.3999 23.8 22.1999 23.6C21.7999 23.2 21.7999 22.6 22.1999 22.2L38.7999 5.59999C39.1999 5.19999 39.7999 5.19999 40.1999 5.59999C40.5999 5.99999 40.5999 6.59999 40.1999 6.99999L23.5999 23.6C23.3999 23.8 23.0999 23.9 22.8999 23.9Z" fill="#537CC2"/>
<path d="M49.6 22.5C49.3 22.5 49.1 22.4 48.9 22.2C48.5 21.8 48.5 21.2 48.9 20.8C49.3 20.4 49.9 20.4 50.3 20.8C50.7 21.2 50.7 21.8 50.3 22.2C50.1 22.4 49.9 22.5 49.6 22.5ZM52.5 19.7C52.2 19.7 52 19.6 51.8 19.4C51.4 19 51.4 18.4 51.8 18C52.2 17.6 52.8 17.6 53.2 18C53.6 18.4 53.6 19 53.2 19.4C53 19.6 52.7 19.7 52.5 19.7Z" fill="#537CC2"/>
<path d="M35.5999 36.6C35.2999 36.6 35.0999 36.5 34.8999 36.3L22.1999 23.6C21.7999 23.2 21.7999 22.6 22.1999 22.2L34.8999 9.50001C35.0999 9.30001 35.2999 9.20001 35.5999 9.20001C35.8999 9.20001 36.0999 9.30001 36.2999 9.50001L48.9999 22.2C49.3999 22.6 49.3999 23.2 48.9999 23.6L36.2999 36.3C36.0999 36.5 35.8999 36.6 35.5999 36.6ZM24.2999 22.9L35.5999 34.2L46.8999 22.9L35.5999 11.6L24.2999 22.9Z" fill="#537CC2"/>
<path d="M32.0999 7.7C31.7999 7.7 31.5999 7.6 31.3999 7.4C30.9999 7 30.9999 6.4 31.3999 6C31.7999 5.6 32.3999 5.6 32.7999 6C33.1999 6.4 33.1999 7 32.7999 7.4C32.5999 7.6 32.3999 7.7 32.0999 7.7ZM29.2999 4.8C29.0999 4.8 28.7999 4.7 28.5999 4.5C28.1999 4.1 28.1999 3.5 28.4999 3.1C28.8999 2.7 29.4999 2.7 29.8999 3C30.2999 3.4 30.2999 4 29.8999 4.4C29.7999 4.7 29.4999 4.8 29.2999 4.8ZM26.3999 2C26.0999 2 25.8999 1.9 25.6999 1.7C25.2999 1.3 25.2999 0.7 25.6999 0.3C26.0999 -0.1 26.6999 -0.1 27.0999 0.3C27.4999 0.7 27.4999 1.3 27.0999 1.7C26.8999 1.9 26.6999 2 26.3999 2Z" fill="#537CC2"/>
<path d="M18.7 28C18.4 28 18.2 27.9 18 27.7C17.6 27.3 17.6 26.7 18 26.3C18.4 25.9 19 25.9 19.4 26.3C19.8 26.7 19.8 27.3 19.4 27.7C19.2 27.9 19 28 18.7 28ZM21.5 25.2C21.2 25.2 21 25.1 20.8 24.9C20.4 24.5 20.4 23.9 20.8 23.5C21.2 23.1 21.8 23.1 22.2 23.5C22.6 23.9 22.6 24.5 22.2 24.9C22.1 25.1 21.8 25.2 21.5 25.2Z" fill="#537CC2"/>
<path d="M39.8 40.7C39.5 40.7 39.3 40.6 39.1 40.4L35.9 37.2C35.5 36.8 35.5 36.2 35.9 35.8C36.3 35.4 36.9 35.4 37.3 35.8L40.5 39C40.9 39.4 40.9 40 40.5 40.4C40.3 40.6 40 40.7 39.8 40.7Z" fill="#537CC2"/>
<path d="M31.7 40.4C31.4 40.4 31.2 40.3 31 40.1C30.6 39.7 30.6 39.1 31 38.7L47.5999 22.1C47.9999 21.7 48.6 21.7 49 22.1C49.4 22.5 49.4 23.1 49 23.5L32.4 40.1C32.2 40.3 32 40.4 31.7 40.4Z" fill="#537CC2"/>
<path d="M35.6 62C35.3 62 35.1 61.9 34.9 61.7L18.3 45.1C17.9 44.7 17.9 44.1 18.3 43.7C18.7 43.3 19.3 43.3 19.7 43.7L36.3 60.3C36.7 60.7 36.7 61.3 36.3 61.7C36.1 61.9 35.9 62 35.6 62Z" fill="#537CC2"/>
<path d="M52.2 53.1C51.9 53.1 51.7 53 51.5 52.8L34.9 36.3C34.5 35.9 34.5 35.3 34.9 34.9C35.3 34.5 35.9 34.5 36.3 34.9L52.9 51.5C53.3 51.9 53.3 52.5 52.9 52.9C52.7 53.1 52.4 53.1 52.2 53.1Z" fill="#537CC2"/>
<path d="M22.8999 49.3C22.5999 49.3 22.3999 49.2 22.1999 49C21.7999 48.6 21.7999 48 22.1999 47.6L38.7999 31C39.1999 30.6 39.7999 30.6 40.1999 31C40.5999 31.4 40.5999 32 40.1999 32.4L23.5999 49C23.3999 49.2 23.0999 49.3 22.8999 49.3Z" fill="#537CC2"/>
<path d="M49.2999 48.3C48.9999 48.3 48.7999 48.2 48.5999 48C48.1999 47.6 48.1999 47 48.5999 46.6L51.7999 43.4C52.1999 43 52.7999 43 53.1999 43.4C53.5999 43.8 53.5999 44.4 53.1999 44.8L49.9999 48C49.7999 48.2 49.4999 48.3 49.2999 48.3Z" fill="#537CC2"/>
<path d="M34.5999 35.6C34.2999 35.6 34.0999 35.5 33.8999 35.3L30.6999 32.1C30.2999 31.7 30.2999 31.1 30.6999 30.7C31.0999 30.3 31.6999 30.3 32.0999 30.7L35.2999 33.9C35.6999 34.3 35.6999 34.9 35.2999 35.3C35.0999 35.5 34.8999 35.6 34.5999 35.6Z" fill="#537CC2"/>
<path d="M18.7 53.4C18.4 53.4 18.2 53.3 18 53.1C17.6 52.7 17.6 52.1 18 51.7C18.4 51.3 19 51.3 19.4 51.7C19.8 52.1 19.8 52.7 19.4 53.1C19.2 53.4 19 53.4 18.7 53.4ZM21.5 50.6C21.2 50.6 21 50.5 20.8 50.3C20.4 49.9 20.4 49.3 20.8 48.9C21.2 48.5 21.8 48.5 22.2 48.9C22.6 49.3 22.6 49.9 22.2 50.3C22.1 50.5 21.8 50.6 21.5 50.6Z" fill="#537CC2"/>
<path d="M44.7999 71.1C44.4999 71.1 44.2999 71.0001 44.0999 70.8001C43.6999 70.4001 43.6999 69.8001 44.0999 69.4001C44.4999 69.0001 45.0999 69.0001 45.4999 69.4001C45.8999 69.8001 45.8999 70.4001 45.4999 70.8001C45.2999 71.0001 44.9999 71.1 44.7999 71.1ZM41.8999 68.3001C41.5999 68.3001 41.3999 68.2 41.1999 68C40.7999 67.6 40.7999 67 41.1999 66.6C41.5999 66.2 42.1999 66.2 42.5999 66.6C42.9999 67 42.9999 67.6 42.5999 68C42.4999 68.2 42.1999 68.3001 41.8999 68.3001ZM39.0999 65.5C38.7999 65.5 38.4999 65.4 38.3999 65.2C37.9999 64.8 38.0999 64.2 38.4999 63.8C38.8999 63.4 39.4999 63.5001 39.8999 63.9001C40.2999 64.3001 40.1999 65.0001 39.7999 65.3001C39.5999 65.4001 39.2999 65.5 39.0999 65.5Z" fill="#537CC2"/>
<path d="M31.7 65.8C31.4 65.8 31.2 65.7 31 65.5C30.6 65.1 30.6 64.5 31 64.1L47.5999 47.5C47.9999 47.1 48.6 47.1 49 47.5C49.4 47.9 49.4 48.5 49 48.9L32.4 65.5C32.2 65.7 32 65.8 31.7 65.8Z" fill="#537CC2"/>
<path d="M48.3001 49.3C48.0001 49.3 47.8001 49.2 47.6001 49L31.0001 32.4C30.6001 32 30.6001 31.4 31.0001 31C31.4001 30.6 32.0001 30.6 32.4001 31L49.0001 47.6C49.4001 48 49.4001 48.6 49.0001 49C48.8001 49.2 48.6001 49.3 48.3001 49.3Z" fill="#537CC2"/>
<path d="M64.9001 40.4C64.6001 40.4 64.4 40.3 64.2 40.1L47.6 23.6C47.2 23.2 47.2 22.6 47.6 22.2C48 21.8 48.6001 21.8 49.0001 22.2L65.6 38.8C66 39.2 66 39.8 65.6 40.2C65.4 40.4 65.1001 40.4 64.9001 40.4Z" fill="#537CC2"/>
<path d="M35.6 36.6C35.3 36.6 35.1 36.5 34.9 36.3C34.5 35.9 34.5 35.3 34.9 34.9L51.5 18.3C51.9 17.9 52.5 17.9 52.9 18.3C53.3 18.7 53.3 19.3 52.9 19.7L36.3 36.3C36.1 36.5 35.8 36.6 35.6 36.6Z" fill="#537CC2"/>
<path d="M64.5 33.1C64.2 33.1 64 33 63.8 32.8C63.4 32.4 63.4 31.8 63.8 31.4C64.2 31 64.8 31 65.2 31.4C65.6 31.8 65.6 32.4 65.2 32.8C65 33 64.8 33.1 64.5 33.1ZM67.3 30.2C67 30.2 66.8 30.1 66.6 29.9C66.2 29.5 66.2 28.9 66.6 28.5C67 28.1 67.6 28.1 68 28.5C68.4 28.9 68.4 29.5 68 29.9C67.8 30.1 67.6 30.2 67.3 30.2ZM70.2 27.4C69.9 27.4 69.7 27.3 69.5 27.1C69.1 26.7 69.1 26.1 69.5 25.7C69.9 25.3 70.5 25.3 70.9 25.7C71.3 26.1 71.3 26.7 70.9 27.1C70.7 27.3 70.4 27.4 70.2 27.4Z" fill="#537CC2"/>
<path d="M47 22.5C46.7 22.5 46.5 22.4 46.3 22.2C45.9 21.8 45.9 21.2 46.3 20.8C46.7 20.4 47.3 20.4 47.7 20.8C48.1 21.2 48.1 21.8 47.7 22.2C47.5 22.4 47.2 22.5 47 22.5ZM44.1 19.7C43.8 19.7 43.6 19.6 43.4 19.4C43 19 43 18.4 43.4 18C43.8 17.6 44.4 17.6 44.8 18C45.2 18.4 45.2 19 44.8 19.4C44.6 19.6 44.4 19.7 44.1 19.7Z" fill="#537CC2"/>
<path d="M31.4 40.8C31.1 40.8 30.9 40.7 30.7 40.5C30.3 40.1 30.3 39.5 30.7 39.1L33.9 35.9C34.3 35.5 34.9 35.5 35.3 35.9C35.7 36.3 35.7 36.9 35.3 37.3L32.1 40.5C31.9 40.7 31.7 40.8 31.4 40.8Z" fill="#537CC2"/>
<path d="M52.5 53.4C52.2 53.4 52 53.3 51.8 53.1C51.4 52.7 51.4 52.1 51.8 51.7C52.2 51.3 52.8 51.3 53.2 51.7C53.6 52.1 53.6 52.7 53.2 53.1C53 53.3 52.7 53.4 52.5 53.4ZM49.6 50.6C49.4 50.6 49.1 50.5 48.9 50.3C48.5 49.9 48.5 49.3 48.9 48.9C49.3 48.5 49.9 48.5 50.3 48.9C50.7 49.3 50.7 49.9 50.4 50.3C50.2 50.5 49.9 50.6 49.6 50.6Z" fill="#537CC2"/>
<path d="M44.4 53.1C44.1 53.1 43.9 53 43.7 52.8C43.3 52.4 43.3 51.8 43.7 51.4L60.3 34.8C60.7 34.4 61.3 34.4 61.7 34.8C62.1 35.2 62.1 35.8 61.7 36.2L45.1 52.8C44.9 53 44.7 53.1 44.4 53.1Z" fill="#537CC2"/>
</g>
<defs>
<clipPath id="clip0">
<rect width="71.2" height="71.1" fill="white"/>
</clipPath>
</defs>
</svg>
